<svg id="svg" version="1.1" xmlns="http://www.w3.org/2000/svg" xmlns:xlink="http://www.w3.org/1999/xlink" width="400" height="75" viewBox="0, 0, 400,75"><g id="svgg"><path id="path0" d="M54.917 16.865 C 51.833 17.619,51.215 17.823,49.417 18.685 C 46.631 20.020,43.646 22.417,42.070 24.583 C 41.803 24.950,41.544 25.287,41.493 25.333 C 41.081 25.705,39.500 28.560,39.500 28.932 C 39.500 29.061,39.425 29.167,39.333 29.167 C 39.242 29.167,39.167 29.312,39.167 29.490 C 39.167 29.668,39.092 29.860,39.000 29.917 C 38.908 29.973,38.833 30.198,38.833 30.417 C 38.833 30.635,38.767 30.855,38.686 30.905 C 38.605 30.955,38.499 31.203,38.450 31.456 C 38.402 31.709,38.226 32.479,38.060 33.167 C 37.629 34.950,37.629 40.050,38.060 41.833 C 38.226 42.521,38.402 43.291,38.450 43.544 C 38.499 43.797,38.605 44.045,38.686 44.095 C 38.767 44.145,38.833 44.369,38.833 44.593 C 38.833 44.817,38.908 45.000,39.000 45.000 C 39.092 45.000,39.167 45.114,39.167 45.252 C 39.167 45.391,39.233 45.635,39.315 45.794 C 39.396 45.953,39.674 46.496,39.932 47.000 C 40.191 47.504,40.480 48.085,40.576 48.290 C 40.672 48.496,40.806 48.665,40.875 48.665 C 40.944 48.666,41.000 48.779,41.000 48.917 C 41.000 49.054,41.075 49.167,41.167 49.167 C 41.258 49.167,41.333 49.247,41.333 49.345 C 41.333 49.443,41.427 49.621,41.542 49.739 C 41.656 49.857,41.975 50.243,42.250 50.596 C 43.499 52.202,46.892 55.167,47.481 55.167 C 47.583 55.167,47.667 55.228,47.667 55.302 C 47.667 55.377,47.929 55.541,48.250 55.667 C 48.571 55.793,48.833 55.957,48.833 56.031 C 48.833 56.106,48.983 56.167,49.167 56.167 C 49.350 56.167,49.500 56.242,49.500 56.333 C 49.500 56.425,49.598 56.500,49.719 56.500 C 49.839 56.500,50.239 56.646,50.607 56.824 C 51.326 57.171,53.340 57.756,54.833 58.052 C 55.884 58.260,61.086 58.302,62.083 58.111 C 63.636 57.813,66.457 56.922,67.297 56.465 C 67.597 56.301,67.954 56.167,68.088 56.167 C 68.223 56.167,68.333 56.092,68.333 56.000 C 68.333 55.908,68.408 55.833,68.498 55.833 C 68.675 55.833,70.730 54.548,71.349 54.051 C 73.485 52.333,75.592 50.008,76.353 48.530 C 76.479 48.284,76.623 48.046,76.672 48.000 C 76.817 47.865,78.000 45.331,78.000 45.156 C 78.000 45.068,78.087 44.828,78.193 44.623 C 78.614 43.809,78.667 43.656,78.667 43.262 C 78.667 43.037,78.734 42.812,78.816 42.761 C 79.481 42.349,79.610 35.638,79.004 32.917 C 78.902 32.458,78.776 31.876,78.723 31.623 C 78.671 31.370,78.562 31.122,78.481 31.071 C 78.400 31.021,78.333 30.834,78.333 30.655 C 78.333 30.475,78.268 30.199,78.188 30.039 C 78.108 29.880,77.678 29.000,77.232 28.083 C 76.786 27.167,76.332 26.304,76.223 26.167 C 76.114 26.029,75.629 25.392,75.145 24.750 C 73.659 22.777,69.946 19.500,69.197 19.500 C 69.104 19.500,69.003 19.441,68.972 19.369 C 68.920 19.246,67.829 18.693,66.500 18.116 C 65.698 17.768,63.511 17.129,62.333 16.900 C 61.385 16.715,55.641 16.688,54.917 16.865 M56.532 18.726 C 57.236 19.116,58.498 20.548,58.499 20.958 C 58.500 21.073,58.575 21.167,58.667 21.167 C 58.758 21.167,58.833 21.317,58.833 21.500 C 58.833 21.683,58.908 21.833,59.000 21.833 C 59.092 21.833,59.167 21.979,59.167 22.157 C 59.167 22.335,59.242 22.527,59.333 22.583 C 59.425 22.640,59.500 22.854,59.500 23.060 C 59.500 23.265,59.570 23.505,59.655 23.592 C 59.741 23.679,59.905 24.817,60.021 26.120 L 60.231 28.490 60.634 28.389 C 61.154 28.259,63.900 26.818,63.972 26.638 C 64.003 26.562,64.120 26.500,64.232 26.500 C 64.345 26.500,64.583 26.366,64.760 26.202 C 65.890 25.162,68.161 24.894,69.075 25.695 C 69.162 25.771,69.368 25.833,69.533 25.833 C 69.698 25.833,69.833 25.908,69.833 26.000 C 69.833 26.092,69.946 26.167,70.083 26.167 C 70.521 26.167,71.613 27.411,71.732 28.044 C 71.796 28.386,72.113 28.930,72.484 29.336 C 73.662 30.625,74.084 31.770,73.641 32.479 C 73.477 32.742,73.584 32.957,74.368 33.935 C 75.489 35.336,75.574 35.655,75.246 37.242 C 74.996 38.454,74.999 38.511,75.347 39.193 C 75.941 40.358,75.154 43.184,73.923 44.305 C 73.014 45.132,65.396 49.061,64.392 49.221 C 64.039 49.277,63.450 49.367,63.083 49.421 C 62.376 49.525,62.034 49.661,59.911 50.687 C 59.174 51.042,58.323 51.333,58.019 51.333 L 57.467 51.333 57.822 51.935 C 58.248 52.657,58.191 52.747,56.889 53.416 C 56.354 53.690,55.879 53.953,55.833 53.999 C 55.788 54.046,55.525 54.196,55.250 54.334 C 54.789 54.564,53.537 55.257,52.203 56.020 C 51.448 56.453,51.066 56.414,50.789 55.875 C 50.660 55.623,50.341 55.042,50.081 54.583 C 49.820 54.125,49.452 53.450,49.262 53.083 C 49.072 52.717,48.879 52.379,48.833 52.333 C 48.788 52.288,48.593 51.950,48.401 51.583 C 48.209 51.217,47.903 50.654,47.722 50.333 C 47.541 50.012,47.174 49.337,46.906 48.833 C 46.638 48.329,46.381 47.879,46.335 47.833 C 46.288 47.788,46.093 47.450,45.901 47.083 C 45.709 46.717,45.380 46.117,45.170 45.750 C 44.961 45.383,44.531 44.596,44.216 44.000 C 43.900 43.404,43.573 42.845,43.488 42.758 C 43.099 42.360,43.338 41.884,44.125 41.487 C 44.560 41.267,44.954 41.049,45.000 41.002 C 45.087 40.913,45.987 40.421,47.417 39.681 C 47.875 39.444,48.288 39.206,48.333 39.153 C 48.379 39.100,48.660 38.951,48.958 38.821 C 49.256 38.691,49.500 38.529,49.500 38.459 C 49.500 37.930,50.316 38.424,50.738 39.208 C 51.320 40.291,52.113 41.728,52.555 42.500 C 52.739 42.821,53.064 43.421,53.277 43.833 C 53.491 44.246,53.666 44.492,53.666 44.380 C 53.666 44.268,53.529 43.931,53.360 43.630 C 51.118 39.637,50.814 38.698,51.520 37.940 C 51.808 37.631,51.833 37.290,51.833 33.756 C 51.833 30.202,51.865 29.784,52.250 28.266 C 52.868 25.829,52.827 24.295,52.082 22.045 C 51.430 20.076,51.473 19.478,52.324 18.715 C 53.085 18.033,55.293 18.039,56.532 18.726 M82.729 19.158 C 80.508 19.549,80.382 19.631,80.997 20.292 C 81.179 20.487,81.745 21.287,82.255 22.069 C 86.544 28.649,87.956 36.882,86.045 44.167 C 85.913 44.671,85.745 45.308,85.672 45.583 C 84.998 48.127,83.223 51.620,81.153 54.473 C 80.480 55.400,80.548 55.457,82.773 55.843 C 85.324 56.284,350.942 56.350,353.667 55.909 C 368.858 53.453,374.874 35.267,364.093 24.394 C 361.821 22.103,359.177 20.528,356.000 19.572 C 353.402 18.791,361.533 18.834,218.250 18.848 C 90.619 18.860,84.338 18.874,82.729 19.158 M53.500 20.482 C 53.500 20.769,53.566 21.135,53.647 21.294 C 54.282 22.542,54.500 23.544,54.500 25.218 C 54.500 26.748,54.303 28.071,53.980 28.706 C 53.899 28.865,53.833 29.180,53.833 29.405 C 53.833 29.630,53.758 29.860,53.667 29.917 C 53.563 29.981,53.500 31.528,53.500 34.004 C 53.500 37.293,53.454 38.085,53.236 38.541 C 52.976 39.088,52.982 39.111,53.760 40.589 C 54.192 41.411,54.965 42.908,55.477 43.917 C 55.989 44.925,56.451 45.788,56.503 45.833 C 56.555 45.879,56.707 46.142,56.840 46.417 C 57.439 47.649,58.415 49.333,58.530 49.333 C 58.600 49.333,58.924 49.183,59.250 49.000 C 59.576 48.817,59.954 48.667,60.088 48.667 C 60.223 48.667,60.333 48.592,60.333 48.500 C 60.333 48.408,60.442 48.333,60.574 48.333 C 60.706 48.333,61.086 48.173,61.418 47.977 C 61.816 47.742,62.417 47.592,63.178 47.538 C 64.377 47.452,64.993 47.179,70.917 44.104 C 72.481 43.292,73.333 42.553,73.333 42.007 C 73.333 41.831,73.408 41.640,73.500 41.583 C 73.669 41.479,73.741 40.000,73.577 40.000 C 73.528 40.000,72.922 40.300,72.230 40.667 C 70.779 41.435,70.688 41.450,70.198 40.994 C 69.358 40.211,69.862 39.553,72.121 38.486 C 73.172 37.989,73.325 37.860,73.329 37.468 C 73.331 37.221,73.408 36.973,73.500 36.917 C 73.859 36.695,73.671 35.756,73.157 35.208 C 72.533 34.542,72.767 34.512,70.884 35.500 C 69.291 36.336,68.572 36.506,68.200 36.133 C 67.939 35.872,67.944 35.198,68.208 34.939 C 68.576 34.578,69.971 33.667,70.155 33.667 C 70.253 33.667,70.333 33.592,70.333 33.500 C 70.333 33.408,70.446 33.333,70.583 33.333 C 70.721 33.333,70.833 33.267,70.833 33.187 C 70.833 33.106,71.051 32.950,71.316 32.840 C 72.102 32.515,72.076 31.386,71.265 30.575 C 71.041 30.351,68.621 31.341,68.167 31.842 C 68.042 31.980,66.890 32.500,66.709 32.500 C 66.429 32.500,65.833 31.886,65.833 31.598 C 65.833 31.133,68.574 29.000,69.172 29.000 C 69.261 29.000,69.333 28.925,69.333 28.833 C 69.333 28.742,69.438 28.667,69.566 28.667 C 70.439 28.667,69.930 28.005,68.608 27.420 C 67.196 26.796,66.946 26.835,65.333 27.923 C 64.921 28.202,64.208 28.613,63.750 28.838 C 63.292 29.062,62.879 29.288,62.833 29.340 C 62.607 29.598,61.000 30.222,60.378 30.294 C 59.023 30.451,58.333 29.546,58.333 27.609 C 58.333 23.365,56.730 20.194,54.502 20.032 L 53.500 19.960 53.500 20.482 M220.720 29.208 C 220.982 29.400,221.001 30.059,220.960 37.667 L 220.917 45.917 219.813 45.965 C 218.784 46.011,218.702 45.988,218.607 45.632 C 218.349 44.669,218.492 29.531,218.762 29.262 C 219.079 28.945,220.316 28.911,220.720 29.208 M104.500 32.667 C 104.592 34.593,104.562 34.560,105.722 34.033 C 106.659 33.607,107.238 33.574,108.025 33.903 C 109.336 34.451,109.529 35.191,109.465 39.417 L 109.417 42.583 107.750 42.583 L 106.083 42.583 106.043 40.083 C 105.992 36.953,105.966 36.833,105.340 36.833 C 104.633 36.833,104.592 36.984,104.500 39.917 L 104.417 42.583 102.847 42.632 C 101.704 42.667,101.241 42.622,101.141 42.465 C 100.903 42.088,100.967 31.042,101.208 30.941 C 101.323 30.893,102.092 30.868,102.917 30.885 L 104.417 30.917 104.500 32.667 M138.132 32.298 L 138.180 33.678 136.465 33.631 L 134.750 33.583 134.700 32.433 C 134.628 30.760,134.567 30.814,136.455 30.869 L 138.083 30.917 138.132 32.298 M157.964 32.708 C 157.990 33.694,158.044 34.500,158.084 34.500 C 158.124 34.500,158.463 34.340,158.837 34.145 C 159.891 33.596,160.834 33.552,161.655 34.013 C 162.776 34.643,162.833 34.889,162.833 39.031 L 162.833 42.678 161.125 42.631 L 159.417 42.583 159.333 39.750 C 159.250 36.925,159.249 36.917,158.856 36.861 C 158.166 36.763,158.088 37.041,158.000 39.883 L 157.917 42.583 156.250 42.583 L 154.583 42.583 154.539 36.918 C 154.487 30.107,154.283 30.810,156.289 30.869 L 157.917 30.917 157.964 32.708 M167.964 32.708 C 167.990 33.694,168.044 34.500,168.084 34.500 C 168.124 34.500,168.463 34.340,168.837 34.145 C 169.891 33.596,170.834 33.552,171.655 34.013 C 172.776 34.643,172.833 34.889,172.833 39.031 L 172.833 42.678 171.125 42.631 L 169.417 42.583 169.333 39.750 C 169.250 36.925,169.249 36.917,168.856 36.861 C 168.166 36.763,168.088 37.041,168.000 39.883 L 167.917 42.583 166.250 42.583 L 164.583 42.583 164.539 36.918 C 164.487 30.107,164.283 30.810,166.289 30.869 L 167.917 30.917 167.964 32.708 M177.899 31.097 C 177.954 31.242,178.000 31.761,178.000 32.250 C 178.000 33.685,178.024 33.667,176.167 33.667 C 174.287 33.667,174.333 33.706,174.333 32.084 C 174.333 30.830,174.280 30.864,176.274 30.846 C 177.518 30.836,177.816 30.882,177.899 31.097 M182.954 30.968 C 183.099 31.060,183.172 31.916,183.204 33.912 L 183.250 36.726 183.860 35.738 C 184.960 33.958,184.888 34.000,186.811 34.000 C 188.913 34.000,188.917 34.017,187.250 36.054 C 185.743 37.897,185.754 37.668,187.083 39.602 C 187.679 40.469,188.167 41.250,188.167 41.339 C 188.167 41.427,188.230 41.500,188.307 41.500 C 188.503 41.500,188.858 42.325,188.742 42.512 C 188.630 42.694,185.160 42.718,184.917 42.539 C 184.762 42.426,184.543 42.082,184.095 41.250 C 183.684 40.488,183.647 40.463,183.406 40.782 C 183.280 40.948,183.175 41.350,183.172 41.675 C 183.164 42.563,182.959 42.667,181.217 42.667 L 179.667 42.667 179.667 36.750 L 179.667 30.833 181.208 30.836 C 182.056 30.837,182.842 30.897,182.954 30.968 M254.882 31.307 C 255.817 31.745,256.814 32.747,257.316 33.751 C 257.750 34.620,257.668 34.876,256.869 35.149 C 256.529 35.266,255.932 35.505,255.543 35.681 C 254.620 36.098,254.577 36.092,254.020 35.468 C 253.054 34.387,251.310 34.840,250.866 36.286 C 250.220 38.389,252.511 39.951,254.023 38.440 L 254.583 37.879 255.993 38.332 C 257.657 38.866,257.820 39.044,257.417 39.893 C 255.405 44.132,249.578 44.096,247.614 39.833 C 245.263 34.729,250.093 29.063,254.882 31.307 M313.000 31.292 C 315.770 32.570,315.693 35.415,312.816 38.046 C 311.194 39.530,311.160 39.428,313.250 39.360 L 315.000 39.303 315.000 40.988 L 315.000 42.672 310.542 42.628 C 305.679 42.579,305.729 42.592,306.587 41.641 C 311.132 36.603,312.222 34.371,310.290 34.058 C 309.576 33.942,308.833 34.541,308.833 35.233 C 308.833 35.927,308.527 35.900,307.322 35.099 C 306.045 34.250,306.008 34.161,306.528 33.188 C 307.652 31.082,310.643 30.205,313.000 31.292 M322.017 31.014 C 323.543 31.500,324.492 32.326,325.151 33.742 C 325.768 35.069,326.086 36.914,325.847 37.776 C 325.749 38.128,325.668 38.586,325.668 38.793 C 325.666 39.289,325.057 40.599,324.482 41.342 C 322.505 43.898,317.766 43.288,316.452 40.309 C 315.806 38.844,315.750 38.551,315.770 36.735 C 315.816 32.584,318.688 29.954,322.017 31.014 M342.345 31.042 C 345.136 31.905,346.766 36.157,345.492 39.250 C 345.416 39.433,345.307 39.752,345.250 39.957 C 344.398 42.998,339.182 43.964,337.256 41.439 C 336.615 40.599,336.697 40.450,338.178 39.765 L 339.522 39.143 339.950 39.572 C 340.696 40.317,341.811 39.893,342.097 38.757 C 342.250 38.144,342.154 38.110,341.177 38.429 C 337.647 39.584,334.907 35.951,336.894 32.750 C 337.843 31.220,340.366 30.429,342.345 31.042 M99.964 32.792 L 99.917 34.417 98.667 34.417 L 97.417 34.417 97.333 38.500 L 97.250 42.583 95.458 42.631 C 94.473 42.657,93.651 42.657,93.632 42.631 C 93.614 42.605,93.557 40.746,93.507 38.500 L 93.417 34.417 92.167 34.417 L 90.917 34.417 90.869 32.792 L 90.821 31.167 95.417 31.167 L 100.012 31.167 99.964 32.792 M126.630 33.125 L 126.678 35.000 127.833 35.000 L 128.989 35.000 129.036 33.125 L 129.083 31.250 130.917 31.250 L 132.750 31.250 132.750 36.917 L 132.750 42.583 130.963 42.631 C 128.868 42.686,129.024 42.865,128.958 40.333 L 128.917 38.750 127.792 38.701 L 126.667 38.651 126.664 40.451 C 126.661 42.788,126.752 42.689,124.653 42.631 L 122.917 42.583 122.873 37.085 C 122.820 30.440,122.590 31.145,124.789 31.203 L 126.583 31.250 126.630 33.125 M143.465 32.616 L 143.513 33.982 144.298 34.033 L 145.083 34.083 145.083 35.583 L 145.083 37.083 144.292 37.134 L 143.500 37.185 143.500 38.226 C 143.500 39.330,143.675 39.667,144.250 39.667 C 144.843 39.667,145.000 39.999,145.000 41.250 L 145.000 42.433 144.447 42.633 C 141.736 43.613,140.000 41.964,140.000 38.408 C 140.000 37.324,139.962 37.167,139.700 37.167 C 139.174 37.167,139.000 36.803,139.000 35.706 C 139.000 34.501,139.198 34.000,139.673 34.000 C 139.970 34.000,140.000 33.881,140.000 32.694 C 140.000 31.076,139.914 31.146,141.825 31.203 L 143.417 31.250 143.465 32.616 M235.000 32.667 L 235.000 34.167 233.000 34.167 L 231.000 34.167 231.000 35.167 L 231.000 36.167 232.833 36.167 L 234.667 36.167 234.667 37.661 L 234.667 39.155 232.875 39.203 L 231.083 39.250 231.000 40.917 L 230.917 42.583 229.167 42.583 L 227.417 42.583 227.373 37.085 C 227.348 34.060,227.365 31.492,227.409 31.376 C 227.470 31.216,228.382 31.167,231.245 31.167 L 235.000 31.167 235.000 32.667 M243.355 31.402 C 245.715 32.388,246.500 36.114,244.688 37.734 C 244.221 38.152,244.223 38.160,245.026 39.461 C 247.215 43.005,247.261 42.667,244.585 42.667 L 242.523 42.667 242.211 42.208 C 242.040 41.956,241.649 41.244,241.342 40.625 C 240.848 39.630,240.729 39.500,240.308 39.500 L 239.833 39.500 239.831 40.875 C 239.827 42.729,239.872 42.689,237.903 42.631 L 236.250 42.583 236.206 37.085 C 236.182 34.060,236.198 31.492,236.242 31.376 C 236.364 31.059,242.588 31.081,243.355 31.402 M270.583 32.833 L 270.583 34.417 269.250 34.417 L 267.917 34.417 267.872 38.542 L 267.828 42.667 266.015 42.667 C 263.796 42.667,264.000 43.117,264.000 38.219 L 264.000 34.298 262.708 34.357 L 261.417 34.417 261.368 33.014 C 261.341 32.242,261.358 31.510,261.405 31.386 C 261.475 31.204,262.345 31.170,266.037 31.206 L 270.583 31.250 270.583 32.833 M334.712 32.083 C 334.691 32.542,334.632 33.158,334.580 33.454 L 334.487 33.990 332.285 34.037 C 330.147 34.082,330.082 34.094,330.030 34.457 C 329.979 34.818,330.010 34.827,330.986 34.725 C 334.909 34.315,337.222 38.384,334.820 41.468 C 332.859 43.985,328.072 43.589,326.645 40.791 C 326.151 39.823,326.121 39.858,328.366 38.851 C 329.342 38.413,329.276 38.405,329.582 38.997 C 330.309 40.404,331.750 40.117,331.750 38.566 C 331.750 37.130,329.989 36.743,328.052 37.753 C 326.934 38.336,326.896 37.992,327.439 32.288 L 327.546 31.160 331.148 31.205 L 334.750 31.250 334.712 32.083 M115.916 33.904 C 117.642 34.504,118.542 35.941,118.465 37.971 L 118.417 39.250 116.125 39.296 C 114.865 39.322,113.833 39.406,113.833 39.484 C 113.833 39.971,115.022 40.136,115.860 39.765 C 116.079 39.668,116.287 39.898,116.843 40.850 L 117.548 42.058 117.185 42.352 C 115.436 43.768,112.113 43.014,111.093 40.970 C 109.160 37.094,112.216 32.616,115.916 33.904 M150.802 33.906 C 151.975 34.218,152.423 34.534,153.010 35.460 C 153.711 36.564,153.665 36.697,152.371 37.304 C 151.042 37.927,150.977 37.935,150.583 37.500 C 149.923 36.770,148.833 37.378,148.833 38.477 C 148.833 39.545,150.209 40.188,150.667 39.333 C 150.962 38.781,153.500 39.616,153.500 40.265 C 153.500 42.509,149.608 43.842,147.413 42.351 C 143.485 39.684,146.287 32.704,150.802 33.906 M194.896 34.174 C 196.175 34.813,197.000 36.283,196.997 37.917 C 196.994 39.380,197.073 39.333,194.592 39.333 C 193.380 39.333,192.340 39.383,192.279 39.443 C 191.841 39.881,193.476 40.203,194.191 39.820 C 194.582 39.611,194.654 39.686,195.417 41.100 L 195.917 42.027 195.481 42.402 C 194.873 42.927,193.135 43.282,192.428 43.027 C 192.134 42.920,191.803 42.833,191.693 42.833 C 191.300 42.833,190.160 41.945,189.792 41.353 C 187.236 37.244,190.855 32.156,194.896 34.174 M210.534 33.875 C 212.449 34.448,212.955 35.742,211.488 36.311 L 210.477 36.703 210.103 36.351 C 209.664 35.939,208.667 35.863,208.667 36.242 C 208.667 36.495,209.604 36.829,210.333 36.835 C 213.027 36.859,213.682 40.774,211.250 42.316 C 209.165 43.639,205.500 42.826,205.500 41.042 C 205.500 40.469,207.575 39.734,207.769 40.238 C 207.994 40.826,209.333 40.910,209.333 40.337 C 209.333 40.110,209.098 39.997,208.294 39.839 C 206.530 39.492,205.985 39.070,205.642 37.790 C 204.949 35.200,207.675 33.019,210.534 33.875 M275.199 33.863 C 276.906 34.374,277.883 35.929,277.800 38.004 L 277.750 39.250 275.458 39.296 C 274.198 39.322,273.167 39.401,273.167 39.471 C 273.167 39.956,274.707 40.227,275.119 39.815 C 275.395 39.538,275.595 39.735,276.275 40.950 L 276.891 42.052 276.444 42.409 C 275.045 43.524,272.261 43.185,271.044 41.751 C 268.132 38.321,271.123 32.642,275.199 33.863 M295.396 33.919 C 295.728 34.058,296.093 34.320,296.207 34.502 C 296.474 34.930,296.639 34.919,297.158 34.439 C 298.035 33.628,299.332 33.457,300.336 34.021 C 301.377 34.607,301.417 34.785,301.417 38.900 L 301.417 42.583 299.792 42.631 L 298.167 42.679 298.147 40.214 C 298.122 37.127,298.054 36.766,297.479 36.699 C 296.841 36.625,296.766 36.925,296.669 39.917 L 296.583 42.583 295.000 42.583 L 293.417 42.583 293.333 39.768 C 293.244 36.740,293.106 36.308,292.375 36.769 C 292.122 36.928,292.072 37.324,292.000 39.768 L 291.917 42.583 290.347 42.632 C 289.204 42.667,288.741 42.622,288.641 42.465 C 288.485 42.219,288.453 34.944,288.605 34.375 C 288.753 33.821,291.745 33.792,291.919 34.342 C 292.002 34.602,292.081 34.641,292.247 34.503 C 293.182 33.726,294.397 33.501,295.396 33.919 M340.754 33.800 C 339.566 34.061,339.846 36.253,341.052 36.134 C 341.774 36.064,342.124 35.426,341.908 34.575 C 341.744 33.926,341.358 33.667,340.754 33.800 M204.461 34.305 C 205.600 35.117,205.482 35.866,203.959 37.474 L 203.273 38.198 202.966 37.599 C 202.749 37.177,202.547 37.000,202.279 37.000 C 201.571 37.000,201.500 37.258,201.500 39.846 C 201.500 42.797,201.569 42.698,199.558 42.632 L 198.083 42.583 198.083 38.333 L 198.083 34.083 199.659 34.083 C 201.175 34.083,201.238 34.098,201.327 34.474 L 201.420 34.865 201.751 34.496 C 202.423 33.750,203.567 33.669,204.461 34.305 M283.180 34.108 C 283.698 34.315,283.897 34.334,283.989 34.184 C 284.073 34.049,284.562 34.001,285.514 34.034 L 286.917 34.083 286.917 38.333 L 286.917 42.583 285.651 42.632 C 284.692 42.668,284.335 42.620,284.180 42.433 C 284.001 42.217,283.904 42.226,283.399 42.510 C 281.665 43.484,279.278 42.449,278.570 40.416 C 277.719 37.970,279.013 34.301,280.849 33.954 C 281.712 33.792,282.523 33.845,283.180 34.108 M138.083 38.333 L 138.083 42.583 136.417 42.583 L 134.750 42.583 134.705 38.503 C 134.650 33.503,134.465 33.977,136.455 34.036 L 138.083 34.083 138.083 38.333 M177.919 34.375 C 177.969 34.581,177.990 36.512,177.964 38.667 L 177.917 42.583 176.167 42.583 L 174.417 42.583 174.372 38.521 C 174.341 35.664,174.384 34.390,174.517 34.229 C 174.883 33.789,177.806 33.914,177.919 34.375 M239.833 35.333 L 239.833 36.500 240.467 36.500 C 241.292 36.500,241.500 36.265,241.500 35.333 C 241.500 34.401,241.292 34.167,240.467 34.167 L 239.833 34.167 239.833 35.333 M320.233 34.461 C 319.538 34.925,319.295 37.992,319.883 38.888 C 320.535 39.884,321.614 39.563,321.959 38.270 C 322.556 36.040,321.467 33.637,320.233 34.461 M114.042 36.944 C 113.486 37.168,113.859 37.500,114.667 37.500 C 115.268 37.500,115.500 37.435,115.500 37.268 C 115.500 36.896,114.636 36.704,114.042 36.944 M192.455 37.015 C 191.980 37.292,192.290 37.500,193.177 37.500 C 193.769 37.500,194.000 37.435,194.000 37.268 C 194.000 36.844,193.023 36.685,192.455 37.015 M273.375 36.944 C 273.260 36.990,273.167 37.134,273.167 37.264 C 273.167 37.509,274.659 37.619,274.887 37.390 C 275.250 37.028,274.047 36.672,273.375 36.944 M282.037 37.426 C 281.553 37.765,281.513 38.976,281.971 39.391 C 283.026 40.345,284.320 38.505,283.281 37.529 C 282.824 37.099,282.537 37.076,282.037 37.426 M48.917 40.885 C 48.733 40.994,48.546 41.121,48.500 41.167 C 48.454 41.213,48.192 41.363,47.917 41.500 C 47.642 41.637,47.379 41.789,47.333 41.837 C 47.288 41.885,46.894 42.110,46.458 42.337 C 46.023 42.564,45.704 42.825,45.750 42.916 C 45.796 43.008,45.879 43.215,45.936 43.375 C 45.993 43.535,46.105 43.667,46.186 43.667 C 46.267 43.667,46.333 43.817,46.333 44.000 C 46.333 44.183,46.400 44.333,46.481 44.333 C 46.562 44.333,46.671 44.465,46.723 44.625 C 46.776 44.785,46.996 45.217,47.213 45.583 C 47.431 45.950,47.872 46.737,48.195 47.333 C 48.518 47.929,48.954 48.717,49.164 49.083 C 49.629 49.896,50.599 51.678,51.070 52.583 C 51.261 52.950,51.460 53.288,51.512 53.333 C 51.565 53.379,51.656 53.548,51.715 53.708 C 51.824 54.004,52.333 54.123,52.333 53.853 C 52.333 53.772,52.465 53.661,52.625 53.606 C 52.785 53.552,53.517 53.171,54.250 52.759 C 55.704 51.944,55.734 51.879,55.109 50.852 C 54.907 50.521,54.632 50.025,54.496 49.750 C 54.361 49.475,54.213 49.212,54.167 49.167 C 54.121 49.121,53.971 48.858,53.833 48.583 C 53.696 48.308,53.546 48.046,53.500 48.000 C 53.454 47.954,53.125 47.354,52.767 46.667 C 52.410 45.979,51.995 45.229,51.845 45.000 C 51.694 44.771,51.462 44.358,51.328 44.083 C 51.194 43.808,51.046 43.546,51.000 43.500 C 50.954 43.454,50.739 43.079,50.523 42.667 C 49.325 40.387,49.474 40.553,48.917 40.885 " stroke="none" fill="#2a8cdb" fill-rule="evenodd"></path><path id="path1" d="M55.917 9.515 C 37.892 11.366,26.241 29.115,31.838 46.196 C 36.764 61.231,53.097 69.178,68.167 63.872 C 81.499 59.178,89.328 44.307,85.745 30.481 C 82.289 17.144,69.456 8.124,55.917 9.515 M63.417 16.826 C 78.086 20.675,84.441 36.928,76.126 49.328 C 68.760 60.310,52.986 61.857,43.661 52.510 C 37.056 45.889,35.521 36.872,39.503 28.081 C 41.780 23.053,47.428 18.480,53.218 16.976 C 56.117 16.223,60.854 16.153,63.417 16.826 M52.686 18.772 C 51.743 19.432,51.708 20.398,52.550 22.500 C 53.080 23.825,53.050 26.901,52.490 28.583 C 52.128 29.670,52.101 30.021,52.092 33.694 C 52.084 37.515,52.072 37.654,51.708 38.145 C 51.119 38.943,50.897 38.369,54.298 44.833 C 56.542 49.100,57.556 50.863,57.886 51.071 C 58.090 51.200,58.683 50.977,60.411 50.120 C 62.434 49.116,62.771 49.000,63.660 49.000 C 64.781 49.000,71.595 45.727,73.645 44.204 C 74.850 43.308,75.658 40.290,75.017 39.080 C 74.691 38.466,74.660 38.274,74.810 37.804 C 75.394 35.980,75.279 35.380,74.075 33.976 C 73.326 33.103,73.312 33.064,73.415 32.220 C 73.541 31.195,73.341 30.728,72.247 29.496 C 71.836 29.034,71.500 28.498,71.500 28.306 C 71.500 27.083,69.202 25.610,67.283 25.604 C 66.205 25.600,66.099 25.643,64.167 26.860 C 62.906 27.654,60.586 28.833,60.284 28.833 C 59.934 28.833,59.859 28.547,59.749 26.794 C 59.489 22.621,57.976 19.477,55.885 18.765 C 54.852 18.413,53.193 18.417,52.686 18.772 M55.543 19.911 C 57.079 20.552,58.500 23.672,58.500 26.402 C 58.500 30.746,60.058 31.001,65.417 27.536 C 67.061 26.473,68.856 26.641,70.058 27.971 C 70.467 28.424,70.479 28.412,68.260 29.841 C 66.324 31.087,65.967 31.475,66.340 31.925 C 66.605 32.244,66.876 32.230,67.537 31.862 C 67.837 31.695,68.752 31.194,69.570 30.750 L 71.056 29.943 71.602 30.593 C 72.711 31.915,72.511 32.433,70.363 33.792 C 68.177 35.177,67.983 35.391,68.476 35.881 L 68.847 36.250 70.749 35.259 C 72.882 34.147,72.882 34.147,73.683 35.443 C 74.008 35.968,74.011 36.033,73.761 37.009 C 73.617 37.569,73.500 38.050,73.500 38.079 C 73.500 38.108,72.874 38.433,72.109 38.802 C 70.578 39.540,70.167 39.865,70.167 40.339 C 70.167 41.067,70.779 41.069,72.223 40.347 C 74.146 39.385,74.251 39.426,73.909 40.997 C 73.490 42.921,73.304 43.133,70.917 44.411 C 65.733 47.188,64.298 47.833,63.305 47.833 C 62.492 47.833,62.068 47.970,60.406 48.766 C 58.208 49.818,58.360 49.841,57.541 48.333 C 55.872 45.256,54.546 42.751,53.520 40.731 L 52.663 39.044 52.995 38.314 C 53.294 37.654,53.326 37.215,53.330 33.768 C 53.333 30.320,53.368 29.839,53.698 28.768 C 54.279 26.884,54.238 23.317,53.618 21.843 C 52.751 19.782,53.481 19.049,55.543 19.911 M46.750 40.334 C 45.100 41.245,43.730 42.086,43.706 42.203 C 43.683 42.321,44.287 43.542,45.050 44.917 C 45.813 46.292,46.664 47.829,46.942 48.333 C 49.318 52.651,51.214 56.009,51.309 56.068 C 51.372 56.107,52.022 55.801,52.753 55.388 C 53.485 54.975,54.646 54.332,55.333 53.958 C 57.418 52.825,57.875 52.502,57.703 52.282 C 57.618 52.173,57.265 51.558,56.918 50.917 C 56.571 50.275,55.971 49.188,55.585 48.500 C 55.198 47.813,54.696 46.913,54.469 46.500 C 51.134 40.452,50.101 38.668,49.941 38.672 C 49.836 38.676,48.400 39.423,46.750 40.334 M52.750 46.040 C 54.492 49.177,55.938 51.822,55.963 51.917 C 56.011 52.094,55.798 52.236,54.083 53.165 C 53.533 53.463,52.833 53.858,52.528 54.042 C 52.056 54.327,51.939 54.343,51.748 54.147 C 51.561 53.955,49.667 50.711,49.667 50.583 C 49.667 50.561,49.104 49.548,48.417 48.333 C 47.729 47.118,47.167 46.106,47.167 46.083 C 47.167 46.061,46.751 45.308,46.242 44.410 C 45.187 42.547,45.154 42.693,46.842 41.777 C 47.443 41.451,48.268 40.994,48.676 40.761 C 49.083 40.528,49.454 40.337,49.500 40.337 C 49.546 40.337,51.008 42.903,52.750 46.040 " stroke="none" fill="#f89447" fill-rule="evenodd"></path><path id="path2" d="M0.000 37.500 L 0.000 75.000 200.000 75.000 L 400.000 75.000 400.000 37.500 L 400.000 0.000 200.000 0.000 L 0.000 0.000 0.000 37.500 M61.250 9.503 C 68.113 10.273,73.638 12.911,78.503 17.742 L 80.256 19.482 80.920 19.323 C 83.761 18.641,76.986 18.673,218.533 18.670 C 310.813 18.668,353.093 18.721,353.700 18.840 C 363.458 20.755,369.716 28.046,369.716 37.500 C 369.716 46.954,363.458 54.245,353.700 56.160 C 353.093 56.279,310.813 56.332,218.533 56.330 C 77.014 56.327,83.759 56.359,80.924 55.678 L 80.266 55.520 78.328 57.402 C 67.084 68.320,49.746 68.297,38.695 57.348 C 25.254 44.032,28.681 21.499,45.500 12.607 C 47.916 11.330,49.800 10.662,53.167 9.887 C 55.208 9.418,58.920 9.241,61.250 9.503 M218.833 37.575 L 218.833 45.833 219.835 45.833 L 220.836 45.833 220.793 37.625 L 220.750 29.417 219.792 29.367 L 218.833 29.317 218.833 37.575 M101.333 36.750 L 101.333 42.500 102.833 42.500 L 104.333 42.500 104.333 39.862 C 104.333 37.321,104.347 37.212,104.719 36.862 C 105.764 35.881,106.066 36.480,106.167 39.733 L 106.250 42.417 107.792 42.465 L 109.333 42.513 109.333 39.281 C 109.333 35.160,109.096 34.408,107.656 33.977 C 106.958 33.768,105.680 34.096,104.948 34.671 C 104.375 35.122,104.333 35.000,104.333 32.889 L 104.333 31.000 102.833 31.000 L 101.333 31.000 101.333 36.750 M134.868 32.208 L 134.917 33.417 136.458 33.465 L 138.000 33.513 138.000 32.256 L 138.000 31.000 136.409 31.000 L 134.819 31.000 134.868 32.208 M154.706 36.708 L 154.750 42.417 156.250 42.417 L 157.750 42.417 157.833 39.694 C 157.920 36.878,158.028 36.500,158.750 36.500 C 159.472 36.500,159.580 36.878,159.667 39.694 L 159.750 42.417 161.217 42.465 L 162.685 42.513 162.634 38.852 C 162.576 34.672,162.518 34.478,161.178 34.032 C 160.338 33.752,159.494 33.932,158.508 34.602 L 157.917 35.005 157.870 33.002 L 157.823 31.000 156.243 31.000 L 154.662 31.000 154.706 36.708 M164.706 36.708 L 164.750 42.417 166.250 42.417 L 167.750 42.417 167.833 39.694 C 167.920 36.878,168.028 36.500,168.750 36.500 C 169.472 36.500,169.580 36.878,169.667 39.694 L 169.750 42.417 171.217 42.465 L 172.685 42.513 172.634 38.852 C 172.576 34.672,172.518 34.478,171.178 34.032 C 170.338 33.752,169.494 33.932,168.508 34.602 L 167.917 35.005 167.870 33.002 L 167.823 31.000 166.243 31.000 L 164.662 31.000 164.706 36.708 M174.701 32.202 L 174.750 33.417 176.250 33.417 L 177.750 33.417 177.750 32.250 L 177.750 31.083 176.201 31.035 L 174.652 30.987 174.701 32.202 M179.833 36.756 L 179.833 42.513 181.292 42.465 L 182.750 42.417 182.843 41.750 C 183.071 40.109,183.663 39.985,184.437 41.417 L 184.977 42.417 186.822 42.464 C 187.836 42.490,188.667 42.470,188.667 42.421 C 188.667 42.315,186.465 38.956,186.315 38.833 C 185.531 38.191,185.626 37.565,186.668 36.503 C 186.714 36.455,186.950 36.154,187.192 35.833 C 187.435 35.512,187.790 35.084,187.983 34.882 C 188.571 34.264,188.427 34.167,186.930 34.167 C 185.117 34.167,185.170 34.138,184.167 35.667 C 182.843 37.682,182.833 37.670,182.833 34.078 L 182.833 31.000 181.333 31.000 L 179.833 31.000 179.833 36.756 M251.167 31.229 C 245.177 33.217,246.281 42.833,252.500 42.833 C 254.425 42.833,256.050 41.861,257.090 40.087 C 257.647 39.136,257.584 39.054,255.884 38.504 L 254.685 38.116 254.087 38.642 C 253.129 39.483,251.538 39.340,250.960 38.361 C 249.502 35.892,252.444 33.281,254.250 35.442 L 254.583 35.840 255.750 35.379 C 257.730 34.595,257.667 34.689,256.967 33.557 C 255.675 31.470,253.306 30.519,251.167 31.229 M309.038 31.323 C 307.847 31.728,307.274 32.223,306.663 33.368 C 306.220 34.200,306.205 34.165,307.306 34.875 C 308.412 35.587,308.667 35.641,308.667 35.161 C 308.667 33.428,311.187 33.303,311.300 35.030 C 311.374 36.162,310.777 37.100,307.768 40.573 C 306.979 41.484,306.333 42.291,306.333 42.367 C 306.333 42.443,308.265 42.486,310.625 42.461 L 314.917 42.417 314.967 41.338 C 315.058 39.395,315.132 39.458,312.911 39.594 C 310.603 39.736,310.590 39.710,312.292 38.267 C 313.002 37.665,313.660 37.077,313.754 36.961 C 316.466 33.615,313.326 29.862,309.038 31.323 M319.417 31.207 C 318.086 31.662,317.067 32.507,316.618 33.527 C 316.035 34.850,315.949 35.269,315.951 36.804 C 315.959 42.492,321.698 45.117,324.623 40.771 C 327.598 36.348,323.954 29.653,319.417 31.207 M339.167 31.318 C 336.016 32.521,335.418 36.353,338.120 38.022 C 338.877 38.490,340.572 38.530,341.545 38.102 C 342.272 37.783,342.460 37.965,342.257 38.792 C 341.954 40.025,340.895 40.522,339.993 39.854 C 339.384 39.405,339.398 39.403,338.095 40.007 C 336.800 40.606,336.798 40.617,337.708 41.565 C 339.921 43.867,343.962 42.765,345.173 39.528 C 347.035 34.550,343.469 29.676,339.167 31.318 M91.000 32.809 L 91.000 34.285 92.375 34.268 L 93.750 34.250 93.795 38.375 L 93.839 42.500 95.500 42.500 L 97.161 42.500 97.205 38.375 L 97.250 34.250 98.583 34.250 L 99.917 34.250 99.965 32.792 L 100.013 31.333 95.506 31.333 L 91.000 31.333 91.000 32.809 M123.167 36.923 L 123.167 42.512 124.792 42.464 L 126.417 42.417 126.464 40.452 L 126.511 38.487 127.880 38.535 L 129.250 38.583 129.333 40.500 L 129.417 42.417 131.000 42.417 L 132.583 42.417 132.627 36.875 L 132.671 31.333 131.008 31.333 L 129.344 31.333 129.297 33.208 L 129.250 35.083 127.875 35.132 L 126.500 35.180 126.500 33.257 L 126.500 31.333 124.833 31.333 L 123.167 31.333 123.167 36.923 M140.298 32.701 C 140.252 34.006,140.231 34.074,139.833 34.167 C 139.324 34.286,139.067 36.833,139.564 36.833 C 140.168 36.833,140.333 37.307,140.333 39.039 C 140.333 42.002,141.686 43.142,144.375 42.446 C 145.109 42.256,144.937 40.004,144.180 39.888 C 143.426 39.773,143.317 39.542,143.368 38.182 L 143.417 36.917 144.215 36.866 L 145.014 36.815 144.965 35.532 L 144.917 34.250 144.125 34.199 L 143.333 34.148 143.333 32.741 L 143.333 31.333 141.840 31.333 L 140.347 31.333 140.298 32.701 M227.539 36.875 L 227.583 42.417 229.202 42.464 L 230.822 42.512 230.869 40.798 L 230.917 39.083 232.708 39.036 L 234.500 38.989 234.500 37.667 L 234.500 36.345 232.708 36.297 L 230.917 36.250 230.917 35.167 L 230.917 34.083 232.958 34.037 L 235.000 33.990 235.000 32.662 L 235.000 31.333 231.248 31.333 L 227.496 31.333 227.539 36.875 M236.333 36.923 L 236.333 42.512 237.958 42.464 L 239.583 42.417 239.631 40.875 L 239.679 39.333 240.298 39.336 C 240.899 39.339,240.934 39.374,241.500 40.525 C 242.507 42.573,242.393 42.500,244.595 42.500 C 246.492 42.500,246.810 42.393,246.349 41.908 C 246.267 41.821,245.705 40.939,245.101 39.949 L 244.004 38.147 244.395 37.782 C 246.198 36.096,245.614 32.628,243.361 31.648 C 242.738 31.376,242.209 31.333,239.486 31.333 L 236.333 31.333 236.333 36.923 M261.535 32.792 L 261.583 34.250 262.917 34.250 L 264.250 34.250 264.333 38.333 L 264.417 42.417 266.042 42.464 L 267.667 42.512 267.669 38.548 C 267.672 33.875,267.590 34.112,269.188 34.190 L 270.417 34.250 270.465 32.792 L 270.513 31.333 266.000 31.333 L 261.487 31.333 261.535 32.792 M327.604 31.854 C 327.547 32.141,327.499 32.834,327.497 33.396 C 327.496 33.957,327.420 35.117,327.330 35.974 C 327.133 37.849,327.155 37.898,328.047 37.516 C 330.754 36.357,333.357 37.891,331.731 39.687 C 331.144 40.337,329.333 39.799,329.333 38.976 C 329.333 38.711,328.754 38.853,327.667 39.386 C 326.453 39.980,326.389 40.177,327.103 41.120 C 330.052 45.015,336.758 42.174,335.427 37.594 C 334.888 35.742,333.644 34.940,331.333 34.957 C 329.668 34.969,329.660 34.966,329.818 34.374 L 329.940 33.917 332.094 33.833 L 334.248 33.750 334.442 32.917 C 334.548 32.458,334.642 31.915,334.651 31.708 L 334.667 31.333 331.188 31.333 L 327.708 31.333 327.604 31.854 M341.728 33.845 C 342.246 34.253,342.339 35.347,341.907 35.963 C 341.603 36.397,340.619 36.476,340.239 36.096 C 338.994 34.851,340.368 32.776,341.728 33.845 M113.663 34.059 C 109.127 35.535,109.973 42.811,114.683 42.830 C 116.820 42.838,117.399 42.341,116.739 41.069 C 116.171 39.976,116.051 39.902,115.254 40.165 C 114.584 40.387,113.635 39.993,113.530 39.449 C 113.481 39.195,113.695 39.167,115.641 39.167 C 118.395 39.167,118.333 39.193,118.333 38.012 C 118.333 35.181,116.079 33.273,113.663 34.059 M149.417 33.917 C 149.325 33.953,148.930 34.064,148.539 34.165 C 145.744 34.883,144.848 39.802,147.135 41.869 C 148.863 43.430,151.706 43.085,152.916 41.168 C 153.501 40.242,153.459 40.144,152.252 39.605 L 151.180 39.126 150.661 39.563 C 150.003 40.116,149.591 40.115,149.075 39.559 C 147.851 38.238,149.322 36.240,150.714 37.334 L 151.139 37.669 152.236 37.161 C 152.840 36.882,153.333 36.616,153.333 36.570 C 153.333 36.271,152.596 35.137,152.166 34.775 C 151.582 34.283,149.859 33.746,149.417 33.917 M191.939 34.116 C 188.299 35.228,188.210 41.418,191.817 42.641 C 192.682 42.935,194.151 42.871,194.958 42.504 C 195.806 42.120,195.797 42.197,195.128 40.979 C 194.561 39.948,194.467 39.894,193.726 40.176 C 192.975 40.461,192.000 40.026,192.000 39.405 C 192.000 39.210,192.407 39.167,194.217 39.167 C 196.701 39.167,196.833 39.114,196.833 38.117 C 196.833 35.161,194.571 33.312,191.939 34.116 M208.138 34.069 C 204.779 35.031,204.993 39.667,208.396 39.667 C 209.208 39.667,209.773 40.156,209.516 40.636 C 209.239 41.154,208.398 41.124,207.826 40.576 L 207.384 40.152 206.567 40.473 C 204.788 41.171,206.492 42.859,208.936 42.821 C 213.179 42.755,214.079 37.740,209.981 36.997 C 208.561 36.739,208.279 36.579,208.504 36.160 C 208.735 35.727,209.616 35.727,210.076 36.160 C 210.388 36.453,210.484 36.465,211.004 36.271 C 212.408 35.747,212.345 35.810,212.057 35.214 C 211.563 34.195,209.650 33.636,208.138 34.069 M273.083 34.032 C 268.467 35.283,269.363 42.883,274.120 42.821 C 275.871 42.798,276.822 42.215,276.343 41.459 C 276.212 41.252,276.002 40.879,275.875 40.628 C 275.560 40.005,275.440 39.958,274.673 40.165 C 273.865 40.382,273.000 40.036,273.000 39.496 C 273.000 39.185,273.121 39.167,275.125 39.164 C 277.806 39.161,277.740 39.204,277.625 37.529 C 277.446 34.921,275.456 33.389,273.083 34.032 M293.424 34.098 C 293.061 34.231,292.607 34.488,292.413 34.670 C 291.964 35.092,291.869 35.085,291.803 34.625 C 291.753 34.273,291.660 34.247,290.292 34.202 L 288.833 34.154 288.833 38.327 L 288.833 42.500 290.333 42.500 L 291.833 42.500 291.833 39.738 C 291.833 36.765,291.905 36.500,292.705 36.500 C 293.444 36.500,293.500 36.727,293.500 39.700 L 293.500 42.500 295.000 42.500 L 296.500 42.500 296.500 39.776 C 296.500 36.842,296.599 36.500,297.451 36.500 C 298.143 36.500,298.247 36.897,298.306 39.781 L 298.362 42.513 299.806 42.465 L 301.250 42.417 301.250 38.833 C 301.250 35.412,301.234 35.227,300.884 34.738 C 300.126 33.674,298.496 33.653,297.085 34.689 L 296.420 35.177 296.098 34.735 C 295.495 33.907,294.557 33.683,293.424 34.098 M202.368 34.272 C 202.066 34.424,201.744 34.690,201.651 34.862 C 201.452 35.235,201.167 35.114,201.167 34.657 C 201.167 34.361,201.040 34.333,199.667 34.333 L 198.167 34.333 198.167 38.417 L 198.167 42.500 199.667 42.500 L 201.167 42.500 201.167 40.037 C 201.167 37.203,201.291 36.833,202.245 36.833 C 202.707 36.833,202.844 36.921,203.027 37.333 C 203.314 37.983,203.305 37.986,204.218 36.928 C 205.712 35.197,204.366 33.266,202.368 34.272 M241.469 34.340 C 242.355 35.166,241.669 36.667,240.405 36.667 L 239.667 36.667 239.667 35.333 L 239.667 34.000 240.385 34.000 C 240.878 34.000,241.218 34.107,241.469 34.340 M280.776 34.234 C 278.033 35.253,277.620 40.455,280.146 42.186 C 280.962 42.746,282.737 42.758,283.479 42.208 C 284.103 41.747,284.270 41.739,284.382 42.167 C 284.458 42.461,284.609 42.500,285.654 42.500 L 286.839 42.500 286.795 38.375 L 286.750 34.250 285.487 34.202 C 284.337 34.158,284.209 34.185,284.066 34.506 L 283.909 34.858 283.461 34.505 C 282.882 34.049,281.616 33.921,280.776 34.234 M321.234 34.190 C 322.511 34.771,322.651 39.087,321.409 39.563 C 320.128 40.055,319.341 39.010,319.336 36.812 C 319.331 34.805,320.138 33.690,321.234 34.190 M134.911 34.372 C 134.865 34.492,134.847 36.351,134.872 38.503 L 134.917 42.417 136.461 42.465 L 138.006 42.513 137.961 38.381 L 137.917 34.250 136.456 34.202 C 135.369 34.166,134.973 34.210,134.911 34.372 M174.742 34.378 C 174.697 34.495,174.681 36.351,174.705 38.503 L 174.750 42.417 176.250 42.417 L 177.750 42.417 177.797 38.667 C 177.858 33.787,177.989 34.167,176.242 34.167 C 175.248 34.167,174.799 34.230,174.742 34.378 M115.233 36.689 C 116.240 37.148,115.939 37.667,114.667 37.667 C 113.499 37.667,113.268 37.432,113.899 36.889 C 114.409 36.451,114.636 36.417,115.233 36.689 M193.818 36.816 C 194.506 37.345,194.182 37.693,193.057 37.633 C 191.994 37.577,191.803 37.363,192.356 36.848 C 192.815 36.421,193.290 36.410,193.818 36.816 M274.811 36.848 C 275.367 37.366,275.173 37.577,274.088 37.634 C 272.883 37.697,272.647 37.505,273.222 36.930 C 273.742 36.410,274.309 36.380,274.811 36.848 M283.394 37.345 C 284.297 38.056,283.770 39.833,282.656 39.833 C 281.881 39.833,281.473 39.354,281.459 38.427 C 281.439 37.131,282.423 36.581,283.394 37.345 " stroke="none" fill="#fbfbfb" fill-rule="evenodd"></path><path id="path3" d="M82.833 18.919 C 82.237 19.033,81.417 19.205,81.009 19.302 C 80.601 19.400,80.189 19.435,80.092 19.382 C 79.996 19.328,80.008 19.383,80.120 19.504 C 80.280 19.676,80.456 19.683,80.953 19.535 C 83.424 18.798,76.140 18.835,218.417 18.835 C 361.505 18.835,353.403 18.791,356.000 19.572 C 363.450 21.812,368.324 27.601,369.481 35.583 L 369.626 36.583 369.647 35.803 C 369.691 34.089,368.787 30.983,367.584 28.711 C 364.769 23.400,360.131 20.102,353.700 18.840 C 352.309 18.567,84.266 18.645,82.833 18.919 M218.762 29.262 C 218.492 29.531,218.349 44.669,218.607 45.632 C 218.702 45.988,218.784 46.011,219.813 45.965 L 220.917 45.917 220.960 37.667 C 221.001 30.059,220.982 29.400,220.720 29.208 C 220.316 28.911,219.079 28.945,218.762 29.262 M220.793 37.625 L 220.836 45.833 219.835 45.833 L 218.833 45.833 218.833 37.575 L 218.833 29.317 219.792 29.367 L 220.750 29.417 220.793 37.625 M101.208 30.941 C 100.967 31.042,100.903 42.088,101.141 42.465 C 101.241 42.622,101.704 42.667,102.847 42.632 L 104.417 42.583 104.500 39.917 C 104.592 36.984,104.633 36.833,105.340 36.833 C 105.966 36.833,105.992 36.953,106.043 40.083 L 106.083 42.583 107.750 42.583 L 109.417 42.583 109.465 39.417 C 109.529 35.191,109.336 34.451,108.025 33.903 C 107.238 33.574,106.659 33.607,105.722 34.033 C 104.562 34.560,104.592 34.593,104.500 32.667 L 104.417 30.917 102.917 30.885 C 102.092 30.868,101.323 30.893,101.208 30.941 M134.739 31.052 C 134.690 31.179,134.673 31.801,134.700 32.433 L 134.750 33.583 136.465 33.631 L 138.180 33.678 138.132 32.298 L 138.083 30.917 136.455 30.869 C 135.189 30.832,134.808 30.872,134.739 31.052 M154.578 31.037 C 154.533 31.155,154.515 33.802,154.539 36.918 L 154.583 42.583 156.250 42.583 L 157.917 42.583 158.000 39.883 C 158.088 37.041,158.166 36.763,158.856 36.861 C 159.249 36.917,159.250 36.925,159.333 39.750 L 159.417 42.583 161.125 42.631 L 162.833 42.678 162.833 39.031 C 162.833 34.889,162.776 34.643,161.655 34.013 C 160.834 33.552,159.891 33.596,158.837 34.145 C 158.463 34.340,158.124 34.500,158.084 34.500 C 158.044 34.500,157.990 33.694,157.964 32.708 L 157.917 30.917 156.289 30.869 C 155.076 30.833,154.640 30.876,154.578 31.037 M164.578 31.037 C 164.533 31.155,164.515 33.802,164.539 36.918 L 164.583 42.583 166.250 42.583 L 167.917 42.583 168.000 39.883 C 168.088 37.041,168.166 36.763,168.856 36.861 C 169.249 36.917,169.250 36.925,169.333 39.750 L 169.417 42.583 171.125 42.631 L 172.833 42.678 172.833 39.031 C 172.833 34.889,172.776 34.643,171.655 34.013 C 170.834 33.552,169.891 33.596,168.837 34.145 C 168.463 34.340,168.124 34.500,168.084 34.500 C 168.044 34.500,167.990 33.694,167.964 32.708 L 167.917 30.917 166.289 30.869 C 165.076 30.833,164.640 30.876,164.578 31.037 M174.542 30.944 C 174.406 30.999,174.333 31.395,174.333 32.084 C 174.333 33.706,174.287 33.667,176.167 33.667 C 178.024 33.667,178.000 33.685,178.000 32.250 C 178.000 30.822,178.012 30.831,176.274 30.846 C 175.436 30.854,174.656 30.897,174.542 30.944 M179.667 36.750 L 179.667 42.667 181.217 42.667 C 182.959 42.667,183.164 42.563,183.172 41.675 C 183.175 41.350,183.280 40.948,183.406 40.782 C 183.647 40.463,183.684 40.488,184.095 41.250 C 184.543 42.082,184.762 42.426,184.917 42.539 C 185.160 42.718,188.630 42.694,188.742 42.512 C 188.858 42.325,188.503 41.500,188.307 41.500 C 188.230 41.500,188.167 41.427,188.167 41.339 C 188.167 41.250,187.679 40.469,187.083 39.602 C 185.754 37.668,185.743 37.897,187.250 36.054 C 188.917 34.017,188.913 34.000,186.811 34.000 C 184.888 34.000,184.960 33.958,183.860 35.738 L 183.250 36.726 183.204 33.912 C 183.151 30.629,183.287 30.839,181.208 30.836 L 179.667 30.833 179.667 36.750 M250.997 31.051 C 249.056 31.709,247.137 34.054,247.181 35.713 C 247.193 36.177,247.223 36.136,247.400 35.417 C 248.581 30.622,254.276 29.397,256.854 33.385 C 257.647 34.612,257.647 34.578,256.836 34.935 C 256.031 35.291,256.076 35.448,256.898 35.151 C 257.668 34.872,257.746 34.612,257.316 33.751 C 256.185 31.486,253.321 30.262,250.997 31.051 M308.861 31.150 C 307.851 31.505,307.055 32.200,306.528 33.188 C 306.008 34.161,306.045 34.250,307.322 35.099 C 308.527 35.900,308.833 35.927,308.833 35.233 C 308.833 34.541,309.576 33.942,310.290 34.058 C 312.222 34.371,311.132 36.603,306.587 41.641 C 305.729 42.592,305.679 42.579,310.542 42.628 C 312.994 42.652,315.000 42.615,315.000 42.544 C 315.000 42.474,313.050 42.438,310.667 42.464 C 308.283 42.490,306.333 42.447,306.333 42.370 C 306.333 42.292,306.979 41.484,307.768 40.573 C 310.777 37.100,311.374 36.162,311.300 35.030 C 311.187 33.303,308.667 33.428,308.667 35.161 C 308.667 35.641,308.412 35.587,307.306 34.875 C 306.207 34.167,306.222 34.202,306.652 33.368 C 307.846 31.052,311.008 30.304,313.466 31.756 C 315.063 32.700,315.200 35.177,313.754 36.961 C 313.660 37.077,313.002 37.665,312.292 38.267 C 310.593 39.707,310.607 39.739,312.859 39.596 C 314.313 39.504,314.748 39.527,314.856 39.698 C 314.959 39.860,314.996 39.838,314.997 39.610 C 315.000 39.328,314.860 39.308,313.250 39.360 C 311.160 39.428,311.194 39.530,312.816 38.046 C 315.234 35.835,315.680 33.752,314.106 32.027 C 313.138 30.967,310.591 30.541,308.861 31.150 M318.883 31.184 C 316.882 31.953,315.802 33.879,315.770 36.735 C 315.750 38.551,315.806 38.844,316.452 40.309 C 316.997 41.543,318.675 42.843,319.707 42.828 C 319.923 42.825,319.705 42.692,319.195 42.516 C 316.682 41.648,315.076 37.479,316.161 34.637 C 316.965 32.530,317.710 31.764,319.512 31.190 C 324.036 29.747,327.575 36.382,324.623 40.771 C 323.738 42.086,323.055 42.440,320.500 42.906 C 320.271 42.948,320.605 42.945,321.242 42.899 C 323.473 42.741,325.663 40.709,325.668 38.793 C 325.668 38.586,325.749 38.128,325.847 37.776 C 326.086 36.914,325.768 35.069,325.151 33.742 C 324.015 31.300,321.380 30.224,318.883 31.184 M338.966 31.163 C 334.137 33.001,336.276 40.032,341.177 38.429 C 342.154 38.110,342.250 38.144,342.097 38.757 C 341.811 39.893,340.696 40.317,339.950 39.572 L 339.522 39.143 338.178 39.765 C 337.410 40.120,336.833 40.490,336.833 40.626 C 336.833 41.381,338.647 42.838,339.574 42.828 C 340.004 42.823,339.940 42.773,339.167 42.508 C 338.322 42.218,337.000 41.085,337.000 40.652 C 337.000 40.510,339.061 39.500,339.352 39.500 C 339.441 39.500,339.729 39.660,339.993 39.854 C 340.895 40.522,341.954 40.025,342.257 38.792 C 342.460 37.965,342.272 37.783,341.545 38.102 C 340.572 38.530,338.877 38.490,338.120 38.022 C 334.819 35.982,336.691 31.017,340.767 31.002 C 346.577 30.982,347.579 40.832,341.946 42.593 C 341.412 42.760,341.347 42.814,341.667 42.825 C 342.749 42.861,344.924 41.120,345.250 39.957 C 345.307 39.752,345.416 39.433,345.492 39.250 C 347.435 34.532,343.366 29.489,338.966 31.163 M104.333 32.889 C 104.333 35.000,104.375 35.122,104.948 34.671 C 105.680 34.096,106.958 33.768,107.656 33.977 C 109.096 34.408,109.333 35.160,109.333 39.281 L 109.333 42.513 107.792 42.465 L 106.250 42.417 106.167 39.733 C 106.066 36.480,105.764 35.881,104.719 36.862 C 104.347 37.212,104.333 37.321,104.333 39.862 L 104.333 42.500 102.833 42.500 L 101.333 42.500 101.333 36.750 L 101.333 31.000 102.833 31.000 L 104.333 31.000 104.333 32.889 M138.000 32.256 L 138.000 33.513 136.458 33.465 L 134.917 33.417 134.868 32.208 L 134.819 31.000 136.409 31.000 L 138.000 31.000 138.000 32.256 M157.870 33.002 L 157.917 35.005 158.508 34.602 C 159.494 33.932,160.338 33.752,161.178 34.032 C 162.518 34.478,162.576 34.672,162.634 38.852 L 162.685 42.513 161.217 42.465 L 159.750 42.417 159.667 39.694 C 159.580 36.878,159.472 36.500,158.750 36.500 C 158.028 36.500,157.920 36.878,157.833 39.694 L 157.750 42.417 156.250 42.417 L 154.750 42.417 154.706 36.708 L 154.662 31.000 156.243 31.000 L 157.823 31.000 157.870 33.002 M167.870 33.002 L 167.917 35.005 168.508 34.602 C 169.494 33.932,170.338 33.752,171.178 34.032 C 172.518 34.478,172.576 34.672,172.634 38.852 L 172.685 42.513 171.217 42.465 L 169.750 42.417 169.667 39.694 C 169.580 36.878,169.472 36.500,168.750 36.500 C 168.028 36.500,167.920 36.878,167.833 39.694 L 167.750 42.417 166.250 42.417 L 164.750 42.417 164.706 36.708 L 164.662 31.000 166.243 31.000 L 167.823 31.000 167.870 33.002 M177.750 32.250 L 177.750 33.417 176.250 33.417 L 174.750 33.417 174.701 32.202 L 174.652 30.987 176.201 31.035 L 177.750 31.083 177.750 32.250 M182.833 34.078 C 182.833 37.670,182.843 37.682,184.167 35.667 C 185.170 34.138,185.117 34.167,186.930 34.167 C 188.427 34.167,188.571 34.264,187.983 34.882 C 187.790 35.084,187.435 35.512,187.192 35.833 C 186.950 36.154,186.714 36.455,186.668 36.503 C 185.626 37.565,185.531 38.191,186.315 38.833 C 186.465 38.956,188.667 42.315,188.667 42.421 C 188.667 42.470,187.836 42.490,186.822 42.464 L 184.977 42.417 184.437 41.417 C 183.663 39.985,183.071 40.109,182.843 41.750 L 182.750 42.417 181.292 42.465 L 179.833 42.513 179.833 36.756 L 179.833 31.000 181.333 31.000 L 182.833 31.000 182.833 34.078 M90.869 32.792 L 90.917 34.417 92.167 34.417 L 93.417 34.417 93.507 38.500 C 93.557 40.746,93.614 42.605,93.632 42.631 C 93.651 42.657,94.473 42.657,95.458 42.631 L 97.250 42.583 97.333 38.500 L 97.417 34.417 98.610 34.417 C 99.267 34.417,99.844 34.377,99.893 34.329 C 99.942 34.280,99.367 34.243,98.616 34.245 L 97.250 34.250 97.205 38.375 L 97.161 42.500 95.500 42.500 L 93.839 42.500 93.795 38.375 L 93.750 34.250 92.375 34.268 L 91.000 34.285 91.000 32.812 L 91.000 31.339 95.542 31.292 L 100.083 31.244 95.452 31.206 L 90.821 31.167 90.869 32.792 M122.911 31.371 C 122.866 31.489,122.848 34.060,122.873 37.085 L 122.917 42.583 124.653 42.631 C 126.752 42.689,126.661 42.788,126.664 40.451 L 126.667 38.651 127.792 38.701 L 128.917 38.750 128.958 40.333 C 129.024 42.865,128.868 42.686,130.963 42.631 L 132.750 42.583 132.750 36.917 L 132.750 31.250 130.917 31.250 L 129.083 31.250 129.036 33.125 L 128.989 35.000 127.833 35.000 L 126.678 35.000 126.630 33.125 L 126.583 31.250 124.789 31.203 C 123.441 31.167,122.973 31.209,122.911 31.371 M140.117 31.272 C 140.053 31.336,140.000 31.976,140.000 32.694 C 140.000 33.881,139.970 34.000,139.673 34.000 C 139.198 34.000,139.000 34.501,139.000 35.706 C 139.000 36.803,139.174 37.167,139.700 37.167 C 139.962 37.167,140.000 37.324,140.000 38.408 C 140.000 41.964,141.736 43.613,144.447 42.633 L 145.000 42.433 145.000 41.250 C 145.000 39.999,144.843 39.667,144.250 39.667 C 143.675 39.667,143.500 39.330,143.500 38.226 L 143.500 37.185 144.292 37.134 L 145.083 37.083 145.083 35.583 L 145.083 34.083 144.298 34.033 L 143.513 33.982 143.465 32.616 L 143.417 31.250 141.825 31.203 C 140.950 31.177,140.181 31.208,140.117 31.272 M227.409 31.376 C 227.365 31.492,227.348 34.060,227.373 37.085 L 227.417 42.583 229.167 42.583 L 230.917 42.583 231.000 40.917 L 231.083 39.250 232.875 39.203 L 234.667 39.155 234.667 37.661 L 234.667 36.167 232.833 36.167 L 231.000 36.167 231.000 35.172 L 231.000 34.177 232.958 34.122 L 234.917 34.068 232.917 34.076 L 230.917 34.083 230.917 35.167 L 230.917 36.250 232.708 36.297 L 234.500 36.345 234.500 37.667 L 234.500 38.989 232.708 39.036 L 230.917 39.083 230.869 40.798 L 230.822 42.512 229.202 42.464 L 227.583 42.417 227.539 36.878 L 227.496 31.340 231.289 31.292 L 235.083 31.243 231.286 31.205 C 228.362 31.175,227.471 31.215,227.409 31.376 M236.242 31.376 C 236.198 31.492,236.182 34.060,236.206 37.085 L 236.250 42.583 237.903 42.631 C 239.872 42.689,239.827 42.729,239.831 40.875 L 239.833 39.500 240.308 39.500 C 240.729 39.500,240.848 39.630,241.342 40.625 C 241.649 41.244,242.040 41.956,242.211 42.208 L 242.523 42.667 244.585 42.667 C 246.986 42.667,246.995 42.660,246.271 41.482 C 245.967 40.988,245.407 40.078,245.026 39.461 C 244.223 38.160,244.221 38.152,244.688 37.734 C 246.500 36.114,245.715 32.388,243.355 31.402 C 242.588 31.081,236.364 31.059,236.242 31.376 M261.405 31.386 C 261.358 31.510,261.341 32.242,261.368 33.014 L 261.417 34.417 262.708 34.357 L 264.000 34.298 264.000 38.219 C 264.000 43.117,263.796 42.667,266.015 42.667 L 267.828 42.667 267.872 38.542 L 267.917 34.417 269.250 34.417 L 270.583 34.417 270.583 32.833 L 270.583 31.250 266.037 31.206 C 262.345 31.170,261.475 31.204,261.405 31.386 M327.523 31.622 C 327.542 32.015,327.556 32.028,327.618 31.708 C 327.690 31.334,327.693 31.333,331.178 31.333 L 334.667 31.333 334.651 31.708 C 334.642 31.915,334.548 32.458,334.442 32.917 L 334.248 33.750 332.094 33.833 L 329.940 33.917 329.818 34.374 C 329.660 34.968,329.665 34.970,331.379 34.951 C 332.383 34.940,332.754 34.886,332.563 34.779 C 332.409 34.693,331.765 34.666,331.132 34.719 C 330.016 34.813,329.981 34.804,330.031 34.450 C 330.081 34.096,330.161 34.082,332.285 34.037 L 334.487 33.990 334.580 33.454 C 334.632 33.158,334.691 32.542,334.712 32.083 L 334.750 31.250 331.125 31.205 L 327.500 31.160 327.523 31.622 M126.500 33.257 L 126.500 35.180 127.875 35.132 L 129.250 35.083 129.297 33.208 L 129.344 31.333 131.008 31.333 L 132.671 31.333 132.627 36.875 L 132.583 42.417 131.000 42.417 L 129.417 42.417 129.333 40.500 L 129.250 38.583 127.880 38.535 L 126.511 38.487 126.464 40.452 L 126.417 42.417 124.792 42.464 L 123.167 42.512 123.167 36.923 L 123.167 31.333 124.833 31.333 L 126.500 31.333 126.500 33.257 M143.333 32.741 L 143.333 34.148 144.125 34.199 L 144.917 34.250 144.965 35.532 L 145.014 36.815 144.215 36.866 L 143.417 36.917 143.368 38.182 C 143.317 39.542,143.426 39.773,144.180 39.888 C 144.937 40.004,145.109 42.256,144.375 42.446 C 141.686 43.142,140.333 42.002,140.333 39.039 C 140.333 37.307,140.168 36.833,139.564 36.833 C 139.067 36.833,139.324 34.286,139.833 34.167 C 140.231 34.074,140.252 34.006,140.298 32.701 L 140.347 31.333 141.840 31.333 L 143.333 31.333 143.333 32.741 M243.361 31.648 C 245.614 32.628,246.198 36.096,244.395 37.782 L 244.004 38.147 245.101 39.949 C 245.705 40.939,246.267 41.821,246.349 41.908 C 246.810 42.393,246.492 42.500,244.595 42.500 C 242.393 42.500,242.507 42.573,241.500 40.525 C 240.934 39.374,240.899 39.339,240.298 39.336 L 239.679 39.333 239.631 40.875 L 239.583 42.417 237.958 42.464 L 236.333 42.512 236.333 36.923 L 236.333 31.333 239.486 31.333 C 242.209 31.333,242.738 31.376,243.361 31.648 M270.465 32.792 L 270.417 34.250 269.188 34.190 C 267.590 34.112,267.672 33.875,267.669 38.548 L 267.667 42.512 266.042 42.464 L 264.417 42.417 264.333 38.333 L 264.250 34.250 262.917 34.250 L 261.583 34.250 261.535 32.792 L 261.487 31.333 266.000 31.333 L 270.513 31.333 270.465 32.792 M327.355 33.000 C 327.228 33.932,327.044 37.586,327.115 37.772 C 327.226 38.061,327.405 38.059,328.058 37.759 C 328.347 37.626,328.846 37.445,329.167 37.357 C 329.690 37.213,329.704 37.195,329.305 37.182 C 329.061 37.173,328.519 37.313,328.102 37.492 C 327.142 37.904,327.134 37.885,327.345 35.782 C 327.485 34.392,327.494 31.987,327.355 33.000 M340.291 33.831 C 339.245 34.653,339.763 36.333,341.062 36.333 C 341.801 36.333,342.167 35.857,342.167 34.892 C 342.167 33.722,341.156 33.151,340.291 33.831 M113.488 33.892 C 108.869 35.374,109.929 43.167,114.750 43.167 C 115.271 43.167,116.818 42.649,117.185 42.352 L 117.548 42.058 116.843 40.850 C 116.287 39.898,116.079 39.668,115.860 39.765 C 115.022 40.136,113.833 39.971,113.833 39.484 C 113.833 39.406,114.865 39.322,116.125 39.296 L 118.417 39.250 118.465 37.971 C 118.578 34.980,116.193 33.025,113.488 33.892 M148.667 33.892 C 143.495 35.585,145.442 44.323,150.691 42.978 C 151.958 42.653,153.500 41.164,153.500 40.265 C 153.500 39.616,150.962 38.781,150.667 39.333 C 150.209 40.188,148.833 39.545,148.833 38.477 C 148.833 37.378,149.923 36.770,150.583 37.500 C 150.977 37.935,151.042 37.927,152.371 37.304 C 153.665 36.697,153.711 36.564,153.010 35.460 C 152.105 34.032,150.267 33.369,148.667 33.892 M191.915 33.886 C 189.059 35.011,188.051 38.554,189.792 41.353 C 190.160 41.945,191.300 42.833,191.693 42.833 C 191.803 42.833,192.134 42.920,192.428 43.027 C 193.135 43.282,194.873 42.927,195.481 42.402 L 195.917 42.027 195.417 41.100 C 194.654 39.686,194.582 39.611,194.191 39.820 C 193.476 40.203,191.841 39.881,192.279 39.443 C 192.340 39.383,193.380 39.333,194.592 39.333 C 197.073 39.333,196.994 39.380,196.997 37.917 C 197.002 35.101,194.291 32.950,191.915 33.886 M207.846 33.898 C 205.052 34.803,204.783 39.764,207.533 39.658 C 207.653 39.654,207.437 39.498,207.054 39.312 C 203.756 37.712,206.723 33.002,210.363 34.060 C 211.667 34.440,212.760 35.648,212.022 35.896 C 211.873 35.947,211.452 36.100,211.087 36.237 C 210.467 36.471,210.401 36.466,210.076 36.160 C 209.616 35.727,208.735 35.727,208.504 36.160 C 208.279 36.579,208.561 36.739,209.981 36.997 C 211.879 37.341,212.603 38.116,212.563 39.762 C 212.495 42.547,208.286 43.941,206.211 41.866 C 205.489 41.144,205.560 40.868,206.567 40.473 L 207.384 40.152 207.826 40.576 C 208.398 41.124,209.239 41.154,209.516 40.636 C 209.784 40.136,209.201 39.659,208.357 39.686 C 207.763 39.706,207.767 39.710,208.542 39.871 C 209.348 40.039,209.649 40.510,209.088 40.725 C 208.754 40.853,207.881 40.532,207.769 40.238 C 207.575 39.734,205.500 40.469,205.500 41.042 C 205.500 42.826,209.165 43.639,211.250 42.316 C 213.682 40.774,213.027 36.859,210.333 36.835 C 209.604 36.829,208.667 36.495,208.667 36.242 C 208.667 35.863,209.664 35.939,210.103 36.351 L 210.477 36.703 211.488 36.311 C 214.050 35.317,210.573 33.015,207.846 33.898 M272.833 33.877 C 271.787 34.192,270.029 35.917,270.388 36.277 C 270.444 36.333,270.560 36.200,270.644 35.981 C 272.019 32.422,277.356 33.612,277.626 37.539 C 277.740 39.203,277.804 39.161,275.125 39.164 C 273.121 39.167,273.000 39.185,273.000 39.496 C 273.000 40.036,273.865 40.382,274.673 40.165 C 275.440 39.958,275.560 40.005,275.875 40.628 C 276.002 40.879,276.206 41.242,276.329 41.436 C 276.817 42.206,276.163 42.643,274.250 42.825 C 273.283 42.917,273.163 42.959,273.547 43.071 C 274.171 43.252,275.875 42.862,276.444 42.409 L 276.891 42.052 276.275 40.950 C 275.595 39.735,275.395 39.538,275.119 39.815 C 274.707 40.227,273.167 39.956,273.167 39.471 C 273.167 39.401,274.198 39.322,275.458 39.296 L 277.750 39.250 277.800 38.004 C 277.921 34.967,275.603 33.041,272.833 33.877 M293.108 34.001 C 292.754 34.177,292.367 34.403,292.247 34.503 C 292.081 34.641,292.002 34.602,291.919 34.342 C 291.745 33.792,288.753 33.821,288.605 34.375 C 288.453 34.944,288.485 42.219,288.641 42.465 C 288.741 42.622,289.204 42.667,290.347 42.632 L 291.917 42.583 292.000 39.768 C 292.090 36.740,292.227 36.308,292.958 36.769 C 293.212 36.928,293.261 37.324,293.333 39.768 L 293.417 42.583 295.000 42.583 L 296.583 42.583 296.669 39.917 C 296.766 36.925,296.841 36.625,297.479 36.699 C 298.054 36.766,298.122 37.127,298.147 40.214 L 298.167 42.679 299.792 42.631 L 301.417 42.583 301.417 38.900 C 301.417 34.785,301.377 34.607,300.336 34.021 C 299.332 33.457,298.035 33.628,297.158 34.439 C 296.639 34.919,296.474 34.930,296.207 34.502 C 295.713 33.711,294.183 33.464,293.108 34.001 M341.908 34.575 C 342.124 35.426,341.774 36.064,341.052 36.134 C 339.846 36.253,339.566 34.061,340.754 33.800 C 341.358 33.667,341.744 33.926,341.908 34.575 M115.591 34.019 C 117.248 34.436,118.333 36.017,118.333 38.012 C 118.333 39.193,118.395 39.167,115.641 39.167 C 113.695 39.167,113.481 39.195,113.530 39.449 C 113.635 39.993,114.584 40.387,115.254 40.165 C 116.051 39.902,116.171 39.976,116.739 41.069 C 117.290 42.130,117.231 42.296,116.183 42.645 C 113.825 43.430,111.545 42.202,110.906 39.802 C 109.979 36.320,112.479 33.236,115.591 34.019 M151.034 34.180 C 151.825 34.388,152.594 35.037,153.007 35.848 C 153.432 36.680,153.491 36.580,152.236 37.161 L 151.139 37.669 150.714 37.334 C 149.322 36.240,147.851 38.238,149.075 39.559 C 149.591 40.115,150.003 40.116,150.661 39.563 L 151.180 39.126 152.252 39.605 C 153.459 40.144,153.501 40.242,152.916 41.168 C 151.706 43.085,148.863 43.430,147.135 41.869 C 144.848 39.802,145.744 34.883,148.539 34.165 C 148.930 34.064,149.325 33.953,149.417 33.917 C 149.595 33.848,150.047 33.922,151.034 34.180 M194.400 34.175 C 195.902 34.737,196.833 36.246,196.833 38.117 C 196.833 39.114,196.701 39.167,194.217 39.167 C 192.407 39.167,192.000 39.210,192.000 39.405 C 192.000 40.026,192.975 40.461,193.726 40.176 C 194.467 39.894,194.561 39.948,195.128 40.979 C 195.797 42.197,195.806 42.120,194.958 42.504 C 193.198 43.303,190.868 42.693,189.940 41.190 C 187.639 37.466,190.629 32.764,194.400 34.175 M202.417 33.982 C 202.233 34.062,201.934 34.293,201.751 34.496 L 201.420 34.865 201.327 34.474 C 201.238 34.098,201.175 34.083,199.659 34.083 L 198.083 34.083 198.083 38.333 L 198.083 42.583 199.558 42.632 C 201.569 42.698,201.500 42.797,201.500 39.846 C 201.500 37.258,201.571 37.000,202.279 37.000 C 202.547 37.000,202.749 37.177,202.966 37.599 L 203.273 38.198 203.959 37.474 C 205.273 36.086,205.340 35.958,205.128 35.264 C 204.813 34.240,203.381 33.563,202.417 33.982 M280.849 33.954 C 279.013 34.301,277.719 37.970,278.570 40.416 C 279.278 42.449,281.665 43.484,283.399 42.510 C 283.904 42.226,284.001 42.217,284.180 42.433 C 284.335 42.620,284.692 42.668,285.651 42.632 L 286.917 42.583 286.917 38.333 L 286.917 34.083 285.514 34.034 C 284.562 34.001,284.073 34.049,283.989 34.184 C 283.897 34.334,283.698 34.315,283.180 34.108 C 282.523 33.845,281.712 33.792,280.849 33.954 M295.226 34.063 C 295.528 34.189,295.921 34.491,296.098 34.735 L 296.420 35.177 297.085 34.689 C 298.496 33.653,300.126 33.674,300.884 34.738 C 301.234 35.227,301.250 35.412,301.250 38.833 L 301.250 42.417 299.806 42.465 L 298.362 42.513 298.306 39.781 C 298.247 36.897,298.143 36.500,297.451 36.500 C 296.599 36.500,296.500 36.842,296.500 39.776 L 296.500 42.500 295.000 42.500 L 293.500 42.500 293.500 39.700 C 293.500 36.727,293.444 36.500,292.705 36.500 C 291.905 36.500,291.833 36.765,291.833 39.738 L 291.833 42.500 290.333 42.500 L 288.833 42.500 288.833 38.327 L 288.833 34.154 290.292 34.202 C 291.660 34.247,291.753 34.273,291.803 34.625 C 291.869 35.085,291.964 35.092,292.413 34.670 C 293.164 33.965,294.369 33.705,295.226 34.063 M134.744 34.205 C 134.698 34.325,134.681 36.259,134.705 38.503 L 134.750 42.583 136.417 42.583 L 138.083 42.583 138.083 38.333 L 138.083 34.083 136.455 34.036 C 135.235 34.000,134.807 34.042,134.744 34.205 M174.517 34.229 C 174.384 34.390,174.341 35.664,174.372 38.521 L 174.417 42.583 176.167 42.583 L 177.917 42.583 177.964 38.667 C 178.025 33.567,178.182 34.000,176.267 34.000 C 175.148 34.000,174.654 34.065,174.517 34.229 M204.342 34.377 C 205.220 34.926,205.176 35.818,204.218 36.928 C 203.305 37.986,203.314 37.983,203.027 37.333 C 202.844 36.921,202.707 36.833,202.245 36.833 C 201.291 36.833,201.167 37.203,201.167 40.037 L 201.167 42.500 199.667 42.500 L 198.167 42.500 198.167 38.417 L 198.167 34.333 199.667 34.333 C 201.040 34.333,201.167 34.361,201.167 34.657 C 201.167 35.114,201.452 35.235,201.651 34.862 C 202.059 34.101,203.487 33.843,204.342 34.377 M239.667 35.333 L 239.667 36.667 240.405 36.667 C 241.290 36.667,241.833 36.122,241.833 35.234 C 241.833 34.453,241.301 34.000,240.385 34.000 L 239.667 34.000 239.667 35.333 M283.461 34.505 L 283.909 34.858 284.066 34.506 C 284.209 34.185,284.337 34.158,285.487 34.202 L 286.750 34.250 286.795 38.375 L 286.839 42.500 285.654 42.500 C 284.609 42.500,284.458 42.461,284.382 42.167 C 284.270 41.739,284.103 41.747,283.479 42.208 C 282.298 43.081,280.079 42.590,279.234 41.269 C 276.904 37.627,280.373 32.076,283.461 34.505 M320.201 34.261 C 319.478 34.768,318.980 37.518,319.471 38.292 C 319.544 38.407,319.599 37.845,319.594 37.042 C 319.569 33.530,321.546 33.147,322.108 36.555 C 322.440 38.565,321.154 40.169,320.076 39.091 C 319.809 38.825,319.667 38.763,319.667 38.915 C 319.667 39.437,320.718 39.828,321.409 39.563 C 322.651 39.087,322.511 34.771,321.234 34.190 C 320.698 33.946,320.647 33.949,320.201 34.261 M137.961 38.381 L 138.006 42.513 136.461 42.465 L 134.917 42.417 134.872 38.503 C 134.817 33.717,134.660 34.143,136.456 34.202 L 137.917 34.250 137.961 38.381 M177.752 34.542 C 177.803 34.748,177.823 36.604,177.797 38.667 L 177.750 42.417 176.250 42.417 L 174.750 42.417 174.705 38.503 C 174.681 36.351,174.697 34.495,174.742 34.378 C 174.907 33.948,177.643 34.097,177.752 34.542 M241.300 34.367 C 241.986 35.052,241.420 36.500,240.467 36.500 L 239.833 36.500 239.833 35.333 L 239.833 34.167 240.467 34.167 C 240.815 34.167,241.190 34.257,241.300 34.367 M251.498 35.042 C 250.521 35.706,250.278 37.206,250.960 38.361 C 251.538 39.340,253.129 39.483,254.087 38.642 L 254.685 38.116 255.884 38.504 C 257.584 39.054,257.647 39.136,257.090 40.087 C 254.545 44.430,248.613 43.509,247.400 38.583 C 247.220 37.852,247.193 37.817,247.181 38.295 C 247.159 39.153,248.013 40.825,248.879 41.618 C 251.597 44.109,255.821 43.256,257.417 39.893 C 257.820 39.044,257.657 38.866,255.993 38.332 L 254.583 37.879 254.023 38.440 C 252.511 39.951,250.220 38.389,250.866 36.286 C 251.310 34.840,253.054 34.387,254.020 35.468 C 254.281 35.761,254.562 36.000,254.644 36.000 C 254.914 36.000,256.038 35.482,255.953 35.397 C 255.907 35.351,255.580 35.435,255.226 35.583 C 254.596 35.846,254.577 35.843,254.250 35.447 C 253.536 34.581,252.418 34.416,251.498 35.042 M333.626 35.361 C 335.665 36.349,336.196 39.004,334.780 41.123 C 333.159 43.549,328.941 43.548,327.103 41.120 C 326.389 40.177,326.453 39.980,327.667 39.386 C 328.754 38.853,329.333 38.711,329.333 38.976 C 329.333 39.252,330.155 40.000,330.450 39.993 C 330.673 39.988,330.632 39.923,330.294 39.739 C 330.043 39.603,329.722 39.268,329.581 38.996 C 329.258 38.371,329.448 38.336,327.026 39.461 C 325.124 40.344,328.125 43.167,330.967 43.167 C 333.749 43.167,335.682 41.375,335.722 38.760 C 335.750 36.910,334.406 34.960,333.136 35.008 C 333.015 35.013,333.236 35.171,333.626 35.361 M247.045 37.000 C 247.045 37.412,247.078 37.581,247.118 37.375 C 247.157 37.169,247.157 36.831,247.118 36.625 C 247.078 36.419,247.045 36.587,247.045 37.000 M113.899 36.889 C 113.268 37.432,113.499 37.667,114.667 37.667 C 115.939 37.667,116.240 37.148,115.233 36.689 C 114.636 36.417,114.409 36.451,113.899 36.889 M192.356 36.848 C 191.803 37.363,191.994 37.577,193.057 37.633 C 194.182 37.693,194.506 37.345,193.818 36.816 C 193.290 36.410,192.815 36.421,192.356 36.848 M270.114 36.730 C 270.051 36.894,270.007 37.227,270.015 37.472 C 270.029 37.886,270.041 37.879,270.190 37.360 C 270.364 36.758,270.301 36.243,270.114 36.730 M273.222 36.930 C 272.647 37.505,272.883 37.697,274.088 37.634 C 275.173 37.577,275.367 37.366,274.811 36.848 C 274.309 36.380,273.742 36.410,273.222 36.930 M369.717 37.500 C 369.717 38.004,369.748 38.210,369.786 37.958 C 369.824 37.706,369.824 37.294,369.786 37.042 C 369.748 36.790,369.717 36.996,369.717 37.500 M115.236 36.934 C 115.842 37.167,115.506 37.500,114.667 37.500 C 114.059 37.500,113.833 37.436,113.833 37.264 C 113.833 36.893,114.636 36.704,115.236 36.934 M193.736 36.934 C 193.881 36.990,194.000 37.140,194.000 37.268 C 194.000 37.538,192.419 37.606,192.256 37.344 C 192.043 36.998,193.123 36.699,193.736 36.934 M274.811 37.057 C 275.086 37.387,274.872 37.500,273.972 37.500 C 273.388 37.500,273.167 37.435,273.167 37.264 C 273.167 36.824,274.481 36.659,274.811 37.057 M281.825 37.307 C 281.293 37.737,281.301 39.102,281.837 39.537 C 282.723 40.254,283.833 39.609,283.833 38.376 C 283.833 37.224,282.683 36.612,281.825 37.307 M283.281 37.529 C 284.320 38.505,283.026 40.345,281.971 39.391 C 281.513 38.976,281.553 37.765,282.037 37.426 C 282.537 37.076,282.824 37.099,283.281 37.529 M331.292 37.498 C 332.031 37.949,332.086 39.110,331.394 39.655 C 331.117 39.873,331.046 40.000,331.202 40.000 C 332.065 40.000,332.436 38.089,331.690 37.485 C 331.473 37.310,331.173 37.167,331.023 37.167 C 330.860 37.168,330.968 37.301,331.292 37.498 M369.445 39.583 C 368.943 43.838,367.158 47.514,364.093 50.606 C 361.821 52.897,359.177 54.472,356.000 55.428 C 353.403 56.209,361.505 56.165,218.417 56.165 C 76.127 56.165,83.424 56.203,80.951 55.465 C 80.400 55.300,80.283 55.316,80.034 55.587 C 79.841 55.799,79.832 55.838,80.006 55.709 C 80.184 55.576,80.460 55.567,80.922 55.678 C 83.760 56.359,77.002 56.327,218.533 56.330 C 310.813 56.332,353.093 56.279,353.700 56.160 C 360.131 54.898,364.773 51.597,367.583 46.289 C 368.819 43.952,369.749 40.707,369.634 39.131 C 369.588 38.499,369.566 38.552,369.445 39.583 M270.019 39.271 C 269.967 40.685,271.647 42.844,272.788 42.830 C 272.951 42.828,272.783 42.687,272.417 42.517 C 271.197 41.951,270.506 40.923,270.110 39.083 C 270.065 38.875,270.031 38.945,270.019 39.271 M340.375 42.948 C 340.535 42.990,340.798 42.990,340.958 42.948 C 341.119 42.906,340.987 42.872,340.667 42.872 C 340.346 42.872,340.215 42.906,340.375 42.948 M58.125 65.618 C 58.331 65.657,58.669 65.657,58.875 65.618 C 59.081 65.578,58.913 65.545,58.500 65.545 C 58.087 65.545,57.919 65.578,58.125 65.618 " stroke="none" fill="#a0bad8" fill-rule="evenodd"></path><path id="path4" d="M55.417 16.487 C 48.662 17.573,42.095 22.358,39.503 28.081 C 32.870 42.726,42.677 58.534,58.417 58.567 C 76.316 58.605,86.174 38.563,75.225 24.393 C 70.732 18.578,62.599 15.332,55.417 16.487 M62.333 16.900 C 63.511 17.129,65.698 17.768,66.500 18.116 C 67.829 18.693,68.920 19.246,68.972 19.369 C 69.003 19.441,69.104 19.500,69.197 19.500 C 69.946 19.500,73.659 22.777,75.145 24.750 C 75.629 25.392,76.114 26.029,76.223 26.167 C 76.332 26.304,76.786 27.167,77.232 28.083 C 77.678 29.000,78.108 29.880,78.188 30.039 C 78.268 30.199,78.333 30.475,78.333 30.655 C 78.333 30.834,78.400 31.021,78.481 31.071 C 78.562 31.122,78.671 31.370,78.723 31.623 C 78.776 31.876,78.902 32.458,79.004 32.917 C 79.610 35.638,79.481 42.349,78.816 42.761 C 78.734 42.812,78.667 43.037,78.667 43.262 C 78.667 43.656,78.614 43.809,78.193 44.623 C 78.087 44.828,78.000 45.068,78.000 45.156 C 78.000 45.331,76.817 47.865,76.672 48.000 C 76.623 48.046,76.479 48.284,76.353 48.530 C 75.592 50.008,73.485 52.333,71.349 54.051 C 70.730 54.548,68.675 55.833,68.498 55.833 C 68.408 55.833,68.333 55.908,68.333 56.000 C 68.333 56.092,68.223 56.167,68.088 56.167 C 67.954 56.167,67.597 56.301,67.297 56.465 C 66.457 56.922,63.636 57.813,62.083 58.111 C 61.086 58.302,55.884 58.260,54.833 58.052 C 53.340 57.756,51.326 57.171,50.607 56.824 C 50.239 56.646,49.839 56.500,49.719 56.500 C 49.598 56.500,49.500 56.425,49.500 56.333 C 49.500 56.242,49.350 56.167,49.167 56.167 C 48.983 56.167,48.833 56.106,48.833 56.031 C 48.833 55.957,48.571 55.793,48.250 55.667 C 47.929 55.541,47.667 55.377,47.667 55.302 C 47.667 55.228,47.583 55.167,47.481 55.167 C 46.892 55.167,43.499 52.202,42.250 50.596 C 41.975 50.243,41.656 49.857,41.542 49.739 C 41.427 49.621,41.333 49.443,41.333 49.345 C 41.333 49.247,41.258 49.167,41.167 49.167 C 41.075 49.167,41.000 49.054,41.000 48.917 C 41.000 48.779,40.944 48.666,40.875 48.665 C 40.806 48.665,40.672 48.496,40.576 48.290 C 40.480 48.085,40.191 47.504,39.932 47.000 C 39.674 46.496,39.396 45.953,39.315 45.794 C 39.233 45.635,39.167 45.391,39.167 45.252 C 39.167 45.114,39.092 45.000,39.000 45.000 C 38.908 45.000,38.833 44.817,38.833 44.593 C 38.833 44.369,38.767 44.145,38.686 44.095 C 38.605 44.045,38.499 43.797,38.450 43.544 C 38.402 43.291,38.226 42.521,38.060 41.833 C 37.629 40.050,37.629 34.950,38.060 33.167 C 38.226 32.479,38.402 31.709,38.450 31.456 C 38.499 31.203,38.605 30.955,38.686 30.905 C 38.767 30.855,38.833 30.635,38.833 30.417 C 38.833 30.198,38.908 29.973,39.000 29.917 C 39.092 29.860,39.167 29.668,39.167 29.490 C 39.167 29.312,39.242 29.167,39.333 29.167 C 39.425 29.167,39.500 29.061,39.500 28.932 C 39.500 28.560,41.081 25.705,41.493 25.333 C 41.544 25.287,41.803 24.950,42.070 24.583 C 43.646 22.417,46.631 20.020,49.417 18.685 C 51.215 17.823,51.833 17.619,54.917 16.865 C 55.641 16.688,61.385 16.715,62.333 16.900 M53.076 18.269 C 51.671 18.592,51.347 19.824,52.082 22.045 C 52.827 24.295,52.868 25.829,52.250 28.266 C 51.865 29.784,51.833 30.202,51.833 33.756 C 51.833 37.290,51.808 37.631,51.520 37.940 C 50.814 38.698,51.118 39.637,53.360 43.630 C 53.529 43.931,53.666 44.268,53.666 44.380 C 53.666 44.492,53.491 44.246,53.277 43.833 C 53.064 43.421,52.739 42.821,52.555 42.500 C 52.113 41.728,51.320 40.291,50.738 39.208 C 50.316 38.424,49.500 37.930,49.500 38.459 C 49.500 38.529,49.256 38.691,48.958 38.821 C 48.660 38.951,48.379 39.100,48.333 39.153 C 48.288 39.206,47.875 39.444,47.417 39.681 C 45.987 40.421,45.087 40.913,45.000 41.002 C 44.954 41.049,44.560 41.267,44.125 41.487 C 43.338 41.884,43.099 42.360,43.488 42.758 C 43.573 42.845,43.900 43.404,44.216 44.000 C 44.531 44.596,44.961 45.383,45.170 45.750 C 45.380 46.117,45.709 46.717,45.901 47.083 C 46.093 47.450,46.288 47.788,46.335 47.833 C 46.381 47.879,46.638 48.329,46.906 48.833 C 47.174 49.337,47.541 50.012,47.722 50.333 C 47.903 50.654,48.209 51.217,48.401 51.583 C 48.593 51.950,48.788 52.288,48.833 52.333 C 48.879 52.379,49.072 52.717,49.262 53.083 C 49.452 53.450,49.820 54.125,50.081 54.583 C 50.341 55.042,50.660 55.623,50.789 55.875 C 51.066 56.414,51.448 56.453,52.203 56.020 C 53.537 55.257,54.789 54.564,55.250 54.334 C 55.525 54.196,55.788 54.046,55.833 53.999 C 55.879 53.953,56.354 53.690,56.889 53.416 C 58.191 52.747,58.248 52.657,57.822 51.935 L 57.467 51.333 58.019 51.333 C 58.323 51.333,59.174 51.042,59.911 50.687 C 62.034 49.661,62.376 49.525,63.083 49.421 C 63.450 49.367,64.039 49.277,64.392 49.221 C 65.396 49.061,73.014 45.132,73.923 44.305 C 75.154 43.184,75.941 40.358,75.347 39.193 C 74.999 38.511,74.996 38.454,75.246 37.242 C 75.574 35.655,75.489 35.336,74.368 33.935 C 73.584 32.957,73.477 32.742,73.641 32.479 C 74.084 31.770,73.662 30.625,72.484 29.336 C 72.113 28.930,71.796 28.386,71.732 28.044 C 71.613 27.411,70.521 26.167,70.083 26.167 C 69.946 26.167,69.833 26.092,69.833 26.000 C 69.833 25.908,69.698 25.833,69.533 25.833 C 69.368 25.833,69.162 25.771,69.075 25.695 C 68.161 24.894,65.890 25.162,64.760 26.202 C 64.583 26.366,64.345 26.500,64.232 26.500 C 64.120 26.500,64.003 26.562,63.972 26.638 C 63.900 26.818,61.154 28.259,60.634 28.389 L 60.231 28.490 60.021 26.120 C 59.905 24.817,59.741 23.679,59.655 23.592 C 59.570 23.505,59.500 23.265,59.500 23.060 C 59.500 22.854,59.425 22.640,59.333 22.583 C 59.242 22.527,59.167 22.335,59.167 22.157 C 59.167 21.979,59.092 21.833,59.000 21.833 C 58.908 21.833,58.833 21.683,58.833 21.500 C 58.833 21.317,58.758 21.167,58.667 21.167 C 58.575 21.167,58.500 21.073,58.499 20.958 C 58.493 19.460,55.138 17.796,53.076 18.269 M55.885 18.765 C 57.976 19.477,59.489 22.621,59.749 26.794 C 59.859 28.547,59.934 28.833,60.284 28.833 C 60.586 28.833,62.906 27.654,64.167 26.860 C 66.099 25.643,66.205 25.600,67.283 25.604 C 69.202 25.610,71.500 27.083,71.500 28.306 C 71.500 28.498,71.836 29.034,72.247 29.496 C 73.341 30.728,73.541 31.195,73.415 32.220 C 73.312 33.064,73.326 33.103,74.075 33.976 C 75.279 35.380,75.394 35.980,74.810 37.804 C 74.660 38.274,74.691 38.466,75.017 39.080 C 75.658 40.290,74.850 43.308,73.645 44.204 C 71.591 45.730,64.781 49.000,63.656 49.000 C 62.766 49.000,62.433 49.114,60.487 50.083 C 58.028 51.309,57.946 51.327,57.561 50.740 C 57.345 50.410,57.246 50.363,57.125 50.532 C 57.013 50.688,56.998 50.661,57.070 50.438 C 57.134 50.241,56.944 49.716,56.557 49.021 C 55.527 47.170,55.429 46.989,54.256 44.750 C 53.631 43.558,52.718 41.820,52.227 40.888 C 51.214 38.967,51.191 38.845,51.708 38.145 C 52.072 37.654,52.084 37.515,52.092 33.694 C 52.101 30.021,52.128 29.670,52.490 28.583 C 53.050 26.901,53.080 23.825,52.550 22.500 C 51.215 19.166,52.579 17.639,55.885 18.765 M53.278 19.778 C 53.049 20.006,53.181 20.803,53.618 21.843 C 54.238 23.317,54.279 26.884,53.698 28.768 C 53.368 29.839,53.333 30.320,53.330 33.768 C 53.326 37.215,53.294 37.654,52.995 38.314 L 52.663 39.044 53.520 40.731 C 54.546 42.751,55.872 45.256,57.541 48.333 C 58.360 49.841,58.208 49.818,60.406 48.766 C 62.068 47.970,62.492 47.833,63.305 47.833 C 64.298 47.833,65.733 47.188,70.917 44.411 C 73.304 43.133,73.490 42.921,73.909 40.997 C 74.251 39.426,74.146 39.385,72.223 40.347 C 70.779 41.069,70.167 41.067,70.167 40.339 C 70.167 39.865,70.578 39.540,72.109 38.802 C 72.874 38.433,73.500 38.108,73.500 38.079 C 73.500 38.050,73.617 37.569,73.761 37.009 C 74.011 36.033,74.008 35.968,73.683 35.443 C 72.882 34.147,72.882 34.147,70.749 35.259 L 68.847 36.250 68.476 35.881 C 67.983 35.391,68.177 35.177,70.363 33.792 C 72.511 32.433,72.711 31.915,71.602 30.593 L 71.056 29.943 69.570 30.750 C 68.752 31.194,67.837 31.695,67.537 31.862 C 66.876 32.230,66.605 32.244,66.340 31.925 C 65.967 31.475,66.324 31.087,68.260 29.841 C 70.479 28.412,70.467 28.424,70.058 27.971 C 68.856 26.641,67.061 26.473,65.417 27.536 C 60.058 31.001,58.500 30.746,58.500 26.402 C 58.500 23.672,57.079 20.552,55.543 19.911 C 54.949 19.662,53.479 19.576,53.278 19.778 M80.521 19.977 C 88.393 30.676,88.675 44.210,81.230 53.981 C 80.722 54.649,80.355 55.244,80.415 55.304 C 80.476 55.365,80.596 55.286,80.683 55.131 C 80.771 54.975,81.091 54.522,81.395 54.123 C 83.084 51.911,85.020 48.044,85.672 45.583 C 85.745 45.308,85.913 44.671,86.045 44.167 C 87.956 36.882,86.544 28.649,82.255 22.069 C 81.745 21.287,81.179 20.487,80.997 20.292 C 80.815 20.097,80.667 19.876,80.667 19.802 C 80.667 19.728,80.583 19.667,80.480 19.667 C 80.356 19.667,80.371 19.772,80.521 19.977 M55.949 20.437 C 57.207 21.376,58.333 24.763,58.333 27.609 C 58.333 29.546,59.023 30.451,60.378 30.294 C 61.000 30.222,62.607 29.598,62.833 29.340 C 62.879 29.288,63.292 29.062,63.750 28.838 C 64.208 28.613,64.921 28.202,65.333 27.923 C 66.946 26.835,67.196 26.796,68.608 27.420 C 69.930 28.005,70.439 28.667,69.566 28.667 C 69.438 28.667,69.333 28.742,69.333 28.833 C 69.333 28.925,69.261 29.000,69.172 29.000 C 68.574 29.000,65.833 31.133,65.833 31.598 C 65.833 31.886,66.429 32.500,66.709 32.500 C 66.890 32.500,68.042 31.980,68.167 31.842 C 68.621 31.341,71.041 30.351,71.265 30.575 C 72.076 31.386,72.102 32.515,71.316 32.840 C 71.051 32.950,70.833 33.106,70.833 33.187 C 70.833 33.267,70.721 33.333,70.583 33.333 C 70.446 33.333,70.333 33.408,70.333 33.500 C 70.333 33.592,70.253 33.667,70.155 33.667 C 69.971 33.667,68.576 34.578,68.208 34.939 C 67.944 35.198,67.939 35.872,68.200 36.133 C 68.572 36.506,69.291 36.336,70.884 35.500 C 72.767 34.512,72.533 34.542,73.157 35.208 C 73.671 35.756,73.859 36.695,73.500 36.917 C 73.408 36.973,73.331 37.221,73.329 37.468 C 73.325 37.860,73.172 37.989,72.121 38.486 C 69.862 39.553,69.358 40.211,70.198 40.994 C 70.688 41.450,70.779 41.435,72.230 40.667 C 72.922 40.300,73.528 40.000,73.577 40.000 C 73.741 40.000,73.669 41.479,73.500 41.583 C 73.408 41.640,73.333 41.831,73.333 42.007 C 73.333 42.553,72.481 43.292,70.917 44.104 C 64.993 47.179,64.377 47.452,63.178 47.538 C 62.417 47.592,61.816 47.742,61.418 47.977 C 61.086 48.173,60.706 48.333,60.574 48.333 C 60.442 48.333,60.333 48.408,60.333 48.500 C 60.333 48.592,60.223 48.667,60.088 48.667 C 59.954 48.667,59.576 48.817,59.250 49.000 C 58.924 49.183,58.600 49.333,58.530 49.333 C 58.415 49.333,57.439 47.649,56.840 46.417 C 56.707 46.142,56.555 45.879,56.503 45.833 C 56.451 45.788,55.989 44.925,55.477 43.917 C 54.965 42.908,54.192 41.411,53.760 40.589 C 52.982 39.111,52.976 39.088,53.236 38.541 C 53.454 38.085,53.500 37.293,53.500 34.004 C 53.500 31.528,53.563 29.981,53.667 29.917 C 53.758 29.860,53.833 29.630,53.833 29.405 C 53.833 29.180,53.899 28.865,53.980 28.706 C 54.303 28.071,54.500 26.748,54.500 25.218 C 54.500 23.544,54.282 22.542,53.647 21.294 C 53.566 21.135,53.500 20.769,53.500 20.482 L 53.500 19.960 54.502 20.032 C 55.152 20.079,55.661 20.222,55.949 20.437 M52.094 42.208 C 53.172 44.156,54.241 46.087,54.469 46.500 C 54.696 46.913,55.198 47.813,55.585 48.500 C 55.971 49.188,56.571 50.275,56.918 50.917 C 57.265 51.558,57.618 52.173,57.703 52.282 C 57.875 52.502,57.418 52.825,55.333 53.958 C 54.646 54.332,53.485 54.975,52.753 55.388 C 52.022 55.801,51.372 56.107,51.309 56.068 C 51.214 56.009,49.318 52.651,46.942 48.333 C 46.664 47.829,45.813 46.292,45.050 44.917 C 44.287 43.542,43.683 42.321,43.706 42.203 C 43.750 41.988,49.586 38.683,49.941 38.672 C 50.046 38.669,51.015 40.260,52.094 42.208 M48.676 40.761 C 48.268 40.994,47.443 41.451,46.842 41.777 C 45.154 42.693,45.187 42.547,46.242 44.410 C 46.751 45.308,47.167 46.061,47.167 46.083 C 47.167 46.106,47.729 47.118,48.417 48.333 C 49.104 49.548,49.667 50.561,49.667 50.583 C 49.667 50.711,51.561 53.955,51.748 54.147 C 51.939 54.343,52.056 54.327,52.528 54.042 C 52.833 53.858,53.533 53.463,54.083 53.165 C 55.798 52.236,56.011 52.094,55.963 51.917 C 55.882 51.615,49.587 40.336,49.500 40.337 C 49.454 40.337,49.083 40.528,48.676 40.761 M49.797 41.292 C 49.979 41.635,50.306 42.254,50.523 42.667 C 50.739 43.079,50.954 43.454,51.000 43.500 C 51.046 43.546,51.194 43.808,51.328 44.083 C 51.462 44.358,51.694 44.771,51.845 45.000 C 51.995 45.229,52.410 45.979,52.767 46.667 C 53.125 47.354,53.454 47.954,53.500 48.000 C 53.546 48.046,53.696 48.308,53.833 48.583 C 53.971 48.858,54.121 49.121,54.167 49.167 C 54.213 49.212,54.361 49.475,54.496 49.750 C 54.632 50.025,54.907 50.521,55.109 50.852 C 55.734 51.879,55.704 51.944,54.250 52.759 C 53.517 53.171,52.785 53.552,52.625 53.606 C 52.465 53.661,52.333 53.772,52.333 53.853 C 52.333 54.123,51.824 54.004,51.715 53.708 C 51.656 53.548,51.565 53.379,51.512 53.333 C 51.460 53.288,51.261 52.950,51.070 52.583 C 50.599 51.678,49.629 49.896,49.164 49.083 C 48.954 48.717,48.518 47.929,48.195 47.333 C 47.872 46.737,47.431 45.950,47.213 45.583 C 46.996 45.217,46.776 44.785,46.723 44.625 C 46.671 44.465,46.562 44.333,46.481 44.333 C 46.400 44.333,46.333 44.183,46.333 44.000 C 46.333 43.817,46.267 43.667,46.186 43.667 C 46.105 43.667,45.993 43.535,45.936 43.375 C 45.879 43.215,45.796 43.008,45.750 42.916 C 45.704 42.825,46.023 42.564,46.458 42.337 C 46.894 42.110,47.288 41.885,47.333 41.837 C 47.379 41.789,47.642 41.637,47.917 41.500 C 48.192 41.363,48.454 41.213,48.500 41.167 C 48.632 41.034,49.239 40.687,49.358 40.676 C 49.418 40.671,49.615 40.948,49.797 41.292 " stroke="none" fill="#8292b4" fill-rule="evenodd"></path></g></svg>